<svg width="8" height="6" viewBox="0 0 8 6" fill="none" xmlns="http://www.w3.org/2000/svg">
<path d="M4.00231 5.09091C4.11745 5.09091 4.22338 5.04836 4.30628 4.96753L7.88025 1.59914C7.95855 1.52258 8 1.42902 8 1.31844C8 1.10154 7.82038 0.931412 7.58089 0.931412C7.46575 0.931412 7.35982 0.973944 7.28152 1.04199L4.00231 4.1382L0.723084 1.04199C0.644795 0.973944 0.543492 0.931412 0.423701 0.931412C0.184214 0.931412 0.00462198 1.10154 0.00462198 1.31844C0.00462198 1.42902 0.0460768 1.52258 0.12894 1.59914L3.69833 4.96753C3.78584 5.04836 3.88717 5.09091 4.00231 5.09091Z" fill="white"/>
</svg>
