<svg width="43" height="48" viewBox="0 0 43 48" fill="none" xmlns="http://www.w3.org/2000/svg">
<path d="M14.4835 40.4011C20.2733 40.4011 24.9671 35.7075 24.9671 29.9176C24.9671 24.1277 20.2733 19.4341 14.4835 19.4341C8.69363 19.4341 4 24.1277 4 29.9176C4 35.7075 8.69363 40.4011 14.4835 40.4011Z" fill="#04E061"/>
<path d="M32.6661 39.0801C36.1642 39.0801 39 36.2443 39 32.7462C39 29.248 36.1642 26.4121 32.6661 26.4121C29.1679 26.4121 26.332 29.248 26.332 32.7462C26.332 36.2443 29.1679 39.0801 32.6661 39.0801Z" fill="#FF4053"/>
<path d="M16.4872 18.0741C18.6523 18.0741 20.4075 16.3189 20.4075 14.1537C20.4075 11.9886 18.6523 10.2334 16.4872 10.2334C14.3221 10.2334 12.5669 11.9886 12.5669 14.1537C12.5669 16.3189 14.3221 18.0741 16.4872 18.0741Z" fill="#965EEB"/>
<path d="M30.204 25.0466C34.9112 25.0466 38.7273 21.2307 38.7273 16.5233C38.7273 11.816 34.9112 8 30.204 8C25.4966 8 21.6805 11.816 21.6805 16.5233C21.6805 21.2307 25.4966 25.0466 30.204 25.0466Z" fill="#00AAFF"/>
</svg>
