<svg width="18" height="18" viewBox="0 0 18 18" fill="none" xmlns="http://www.w3.org/2000/svg">
<rect width="18" height="18" rx="9" fill="#F6F6F6"/>
<g clip-path="url(#clip0_1332_10638)">
<path d="M6.66448 11.8159H7.84665C8.34262 11.8159 8.611 11.5323 8.611 11.0042V5.81853C8.611 5.2904 8.34262 5.00684 7.84665 5.00684H6.66448C6.16851 5.00684 5.90015 5.2904 5.90015 5.81853V11.0042C5.90015 11.5323 6.16851 11.8159 6.66448 11.8159ZM6.69505 11.2807C6.51161 11.2807 6.4131 11.1779 6.4131 10.9936V5.82917C6.4131 5.64485 6.51161 5.54206 6.69505 5.54206H7.81607C7.99952 5.54206 8.09803 5.64485 8.09803 5.82917V10.9936C8.09803 11.1779 7.99952 11.2807 7.81607 11.2807H6.69505ZM10.0344 11.8159H11.2165C11.7091 11.8159 11.9809 11.5323 11.9809 11.0042V8.32806C11.9809 7.80347 11.7091 7.51636 11.2165 7.51636H10.0344C9.53838 7.51636 9.2666 7.80347 9.2666 8.32806V11.0042C9.2666 11.5323 9.53838 11.8159 10.0344 11.8159ZM10.0615 11.2807C9.88147 11.2807 9.77955 11.1779 9.77955 10.9936V8.3387C9.77955 8.15438 9.88147 8.05159 10.0615 8.05159H11.1859C11.366 8.05159 11.4679 8.15438 11.4679 8.3387V10.9936C11.4679 11.1779 11.366 11.2807 11.1859 11.2807H10.0615Z" fill="#999999"/>
<path d="M5.23779 13H12.6399C12.7724 13 12.8743 12.8795 12.8743 12.7413C12.8743 12.6031 12.7724 12.479 12.6399 12.479H5.23779C5.10191 12.479 5 12.6031 5 12.7413C5 12.8795 5.10191 13 5.23779 13Z" fill="#999999"/>
</g>
<defs>
<clipPath id="clip0_1332_10638">
<rect width="8" height="8" fill="white" transform="translate(5 5)"/>
</clipPath>
</defs>
</svg>
