<svg width="18" height="18" viewBox="0 0 18 18" fill="none" xmlns="http://www.w3.org/2000/svg">
<rect width="18" height="18" rx="9" fill="#F6F6F6"/>
<path d="M5 8.34088C5 9.9919 6.44166 11.6158 8.71925 13.011C8.80405 13.0614 8.9252 13.1157 9.01001 13.1157C9.09481 13.1157 9.21595 13.0614 9.30482 13.011C11.5783 11.6158 13.02 9.9919 13.02 8.34088C13.02 6.96891 12.0387 6 10.7303 6C9.98324 6 9.37747 6.34106 9.01001 6.86427C8.6506 6.34493 8.03678 6 7.2897 6C5.9813 6 5 6.96891 5 8.34088ZM5.65016 8.34088C5.65016 7.30996 6.34474 6.62398 7.28163 6.62398C8.04082 6.62398 8.47695 7.07743 8.7354 7.46499C8.84444 7.62001 8.91309 7.66265 9.01001 7.66265C9.10693 7.66265 9.16749 7.61614 9.2846 7.46499C9.56327 7.08518 9.98324 6.62398 10.7384 6.62398C11.6753 6.62398 12.3699 7.30996 12.3699 8.34088C12.3699 9.78264 10.7828 11.3368 9.09481 12.4142C9.05443 12.4413 9.02616 12.4607 9.01001 12.4607C8.99385 12.4607 8.96558 12.4413 8.92924 12.4142C7.23721 11.3368 5.65016 9.78264 5.65016 8.34088Z" fill="#999999"/>
</svg>
