<svg width="18" height="18" viewBox="0 0 18 18" fill="none" xmlns="http://www.w3.org/2000/svg">
<rect width="18" height="18" rx="9" fill="#F6F6F6"/>
<path d="M7.84546 6.70996C7.97549 4.36438 11.4363 4.36257 11.5671 6.70996H12.1414C12.4443 6.70849 12.6986 6.93525 12.7244 7.23242L12.7253 7.24023L12.6746 7.2373L12.7244 7.24023C12.7245 7.24272 12.7251 7.24712 12.7253 7.25195C12.7259 7.26146 12.7272 7.27485 12.7283 7.29199C12.7306 7.32721 12.7336 7.37802 12.738 7.44141C12.747 7.56818 12.7596 7.74681 12.7751 7.95996C12.8062 8.38633 12.8481 8.95104 12.8894 9.51562C12.9307 10.0801 12.9719 10.6448 13.0017 11.0713C13.0166 11.2842 13.0289 11.4628 13.0369 11.5898C13.0408 11.6533 13.0439 11.7045 13.0457 11.7402C13.0465 11.7581 13.0473 11.7727 13.0476 11.7832C13.0477 11.7884 13.0477 11.7931 13.0476 11.7969C13.0476 11.7978 13.0467 11.7988 13.0466 11.7998C13.0962 12.4732 12.5418 13.0527 11.8533 13.0498H7.5564C6.8677 13.0525 6.3116 12.4734 6.36206 11.7988C6.36685 11.7183 6.40287 11.6568 6.45581 11.6172C6.50782 11.5784 6.57341 11.5623 6.6355 11.5664C6.69772 11.5706 6.76075 11.5954 6.80737 11.6406C6.85494 11.6868 6.8834 11.7524 6.87769 11.833C6.8492 12.2135 7.16284 12.5456 7.5564 12.5439H11.8533L11.9294 12.54C12.3016 12.5009 12.5666 12.1656 12.5339 11.7969V11.7959L12.2107 7.27441C12.2067 7.24199 12.1781 7.21663 12.1423 7.2168H11.573V7.70508C11.5729 7.84576 11.4563 7.95794 11.3152 7.95801C11.174 7.95801 11.0575 7.8458 11.0574 7.70508V7.2168H8.3562V7.70508C8.3562 7.84587 8.23962 7.95898 8.09839 7.95898C7.95734 7.95877 7.84058 7.84573 7.84058 7.70508V7.2168H7.27222C7.23539 7.21696 7.20637 7.24434 7.20288 7.27832V7.28027C7.19745 7.32095 7.19617 7.37113 7.19409 7.42969C7.19209 7.48621 7.18888 7.54886 7.17651 7.60645C7.16413 7.66388 7.14156 7.72258 7.09741 7.76562C7.05174 7.81007 6.98877 7.833 6.90796 7.83008L6.90503 7.8291C6.82375 7.82186 6.7637 7.79117 6.72437 7.74023C6.68658 7.69119 6.67283 7.62945 6.6687 7.57031C6.66459 7.51088 6.66957 7.4475 6.67554 7.39062C6.68173 7.3316 6.6881 7.28115 6.68823 7.24023V7.23633H6.68921C6.71339 6.93766 6.96807 6.70878 7.27222 6.70996H7.84546ZM11.0505 6.70996C10.9189 5.07153 8.49677 5.07043 8.36401 6.70996H11.0505Z" fill="#999999" stroke="#999999" stroke-width="0.1"/>
<path d="M7.0459 9.44385C7.18713 9.44385 7.30371 9.55599 7.30371 9.69678C7.30368 9.8375 7.18743 9.94971 7.0459 9.94971H5.20801C5.06679 9.94971 4.95022 9.83754 4.9502 9.69678C4.9502 9.55599 5.06678 9.44385 5.20801 9.44385H7.0459Z" fill="#999999" stroke="#999999" stroke-width="0.1"/>
<path d="M7.51123 8.31738L7.56885 8.32324C7.6235 8.33438 7.66872 8.36054 7.70166 8.39746C7.74469 8.44576 7.7652 8.50899 7.76514 8.57031C7.76507 8.63169 7.74379 8.6949 7.70068 8.74316C7.65681 8.79213 7.59228 8.8229 7.51123 8.82324H6.0083C5.92723 8.82281 5.86266 8.79213 5.81885 8.74316C5.77576 8.69488 5.75533 8.63166 5.75537 8.57031C5.75543 8.50894 5.77574 8.44573 5.81885 8.39746C5.86266 8.34843 5.92728 8.31781 6.0083 8.31738H7.51123Z" fill="#999999" stroke="#999999" stroke-width="0.1"/>
<path d="M7.51099 10.5693C7.65215 10.5694 7.7688 10.6815 7.7688 10.8223C7.76877 10.9629 7.65245 11.0751 7.51099 11.0752H6.00903C5.86782 11.0752 5.75125 10.963 5.75122 10.8223C5.75122 10.6815 5.8678 10.5693 6.00903 10.5693H7.51099Z" fill="#999999" stroke="#999999" stroke-width="0.1"/>
</svg>
