<svg width="18" height="18" viewBox="0 0 18 18" fill="none" xmlns="http://www.w3.org/2000/svg">
<rect width="18" height="18" rx="9" fill="#F6F6F6"/>
<path d="M9 6C10.5756 6.14594 11.7996 6.72927 12.6719 7.75C13.5442 8.77073 13.9869 9.35406 14 9.5C13.9869 9.64594 13.5442 10.2293 12.6719 11.25C11.7996 12.2707 10.5756 12.8541 9 13C7.42438 12.8541 6.20042 12.2707 5.32812 11.25C4.45583 10.2293 4.01312 9.64594 4 9.5C4.01312 9.35406 4.45583 8.77073 5.32812 7.75C6.20042 6.72927 7.42438 6.14594 9 6ZM9 6.63636C7.89313 6.70934 6.97188 7.08882 6.23625 7.77482C5.50063 8.46082 4.99927 9.03588 4.73219 9.5C4.99906 9.96412 5.50042 10.5392 6.23625 11.2252C6.97208 11.9112 7.89333 12.2906 9 12.3636C10.1069 12.2906 11.0281 11.9112 11.7638 11.2252C12.4994 10.5392 13.0007 9.96412 13.2678 9.5C13.0009 9.03588 12.4996 8.46082 11.7638 7.77482C11.0279 7.08882 10.1067 6.70934 9 6.63636ZM9 7.27273C9.61854 7.28609 10.1345 7.5032 10.5478 7.92405C10.9611 8.34489 11.1744 8.87021 11.1875 9.5C11.1744 10.1298 10.9611 10.6551 10.5478 11.076C10.1345 11.4968 9.61854 11.7139 9 11.7273C8.38146 11.7139 7.86552 11.4968 7.45219 11.076C7.03886 10.6551 6.82562 10.1298 6.8125 9.5C6.82562 8.87021 7.03886 8.34489 7.45219 7.92405C7.86552 7.5032 8.38146 7.28609 9 7.27273ZM9 7.90909C8.55729 7.92245 8.18948 8.07826 7.89656 8.3765C7.60364 8.67474 7.45062 9.04924 7.4375 9.5C7.45062 9.95076 7.60364 10.3253 7.89656 10.6235C8.18948 10.9218 8.55729 11.0775 9 11.0909C9.44271 11.0775 9.81052 10.9218 10.1034 10.6235C10.3964 10.3253 10.5494 9.95076 10.5625 9.5C10.5494 9.04924 10.3964 8.67474 10.1034 8.3765C9.81052 8.07826 9.44271 7.92245 9 7.90909Z" fill="#999999"/>
</svg>
