<svg width="13" height="13" viewBox="0 0 13 13" fill="none" xmlns="http://www.w3.org/2000/svg">
<g clip-path="url(#clip0_328_3016)">
<path d="M7.28234 13.0001C7.70112 13.0001 7.99773 12.6355 8.21299 12.0711L12.0228 2.01094C12.1275 1.74047 12.1857 1.4994 12.1857 1.2995C12.1857 0.91732 11.953 0.682129 11.5749 0.682129C11.3772 0.682129 11.1387 0.740928 10.8712 0.846762L0.866667 4.72148C0.378076 4.90963 0 5.20949 0 5.63871C0 6.17966 0.407159 6.36191 0.965545 6.53242L5.1651 7.77891L6.3866 11.9711C6.56105 12.565 6.7414 13.0001 7.28234 13.0001ZM5.42684 6.88518L1.41342 5.64459C1.32036 5.61519 1.29127 5.59167 1.29127 5.55052C1.29127 5.50936 1.31454 5.47996 1.40179 5.44468L9.26574 2.43428C9.73109 2.25789 10.1789 2.0227 10.6094 1.82279C10.2255 2.1403 9.74854 2.5166 9.42864 2.83998L5.42684 6.88518ZM7.37538 11.7066C7.32886 11.7066 7.30557 11.6654 7.2765 11.5713L6.04918 7.51435L10.051 3.46911C10.3651 3.1516 10.7548 2.65771 11.0631 2.25789C10.8653 2.70475 10.6268 3.15748 10.4523 3.63374L7.47425 11.5831C7.43934 11.6713 7.41612 11.7066 7.37538 11.7066Z" fill="#171717"/>
</g>
<defs>
<clipPath id="clip0_328_3016">
<rect width="13" height="13" fill="white"/>
</clipPath>
</defs>
</svg>
