<svg width="48" height="36" viewBox="0 0 48 36" fill="none" xmlns="http://www.w3.org/2000/svg">
<ellipse cx="26.1324" cy="17.9334" rx="17.5258" ry="17.1966" fill="#8B8B8B"/>
<path d="M17.4846 5.11008L17.8578 9.74818C26.7694 9.48386 32.4109 10.6443 35.4778 11.2928L37.0098 7.40547C37.1295 7.10172 37.0031 6.75528 36.7121 6.60749C29.7184 3.05508 22.062 3.57402 17.9781 4.43766C17.6664 4.50358 17.459 4.79258 17.4846 5.11008Z" fill="#171717" stroke="#8B8B8B" stroke-width="0.483655"/>
<path d="M46.4579 16.1276C46.4132 16.6612 45.9083 17.2064 44.8412 17.7045C43.7938 18.1935 42.2875 18.5965 40.4223 18.8897C36.6957 19.4754 31.591 19.6145 25.9944 19.1635C20.3978 18.7125 15.3847 17.7581 11.8054 16.5837C10.0139 15.9958 8.59483 15.3571 7.64273 14.707C6.67277 14.0448 6.26525 13.426 6.30992 12.8924C6.35458 12.3588 6.85951 11.8136 7.92658 11.3155C8.97401 10.8266 10.4803 10.4235 12.3455 10.1304C16.0721 9.54464 21.1768 9.40553 26.7734 9.85652C32.37 10.3075 37.3831 11.2619 40.9624 12.4364C42.7539 13.0242 44.173 13.6629 45.1251 14.313C46.095 14.9752 46.5025 15.594 46.4579 16.1276Z" fill="#171717" stroke="#8B8B8B" stroke-width="0.483655"/>
<path d="M6.6106 13.4131C6.6106 13.4131 21.6698 10.7535 46.1269 16.3646" stroke="#8B8B8B" stroke-width="0.483655"/>
<path d="M17.1127 18.0396C17.1127 16.3394 17.7547 13.6397 18.0774 12.8184C18.0774 12.8184 21.6346 12.7887 25.222 13.0549C28.8093 13.3212 32.3967 13.9128 32.3967 13.9128C32.0781 21.0638 29.1711 28.6731 23.4845 29.4586C19.6965 29.9819 18.0126 27.1622 17.5864 25.4083C10.14 24.3866 3.62954 26.1917 1 27.5436C5.96275 19.608 13.1791 18.504 17.1127 18.0396Z" fill="#171717" stroke="#8B8B8B" stroke-width="0.483655"/>
<path d="M25.2197 18.3426C24.9585 20.0438 23.4898 21.2007 21.9747 20.9767C20.4595 20.7528 19.4032 19.2228 19.6644 17.5216C19.9255 15.8205 21.3942 14.6636 22.9094 14.8875C24.4246 15.1115 25.4808 16.6415 25.2197 18.3426Z" fill="#171717" stroke="#8B8B8B" stroke-width="0.483655"/>
<path d="M20.0539 17.2422C19.7726 17.0931 18.8377 16.8207 17.3476 16.9239" stroke="#8B8B8B" stroke-width="0.483655"/>
<path d="M37.95 29.9454C33.2921 26.4 33.5203 17.9611 34.2733 14.314L32.367 14.0718C30.8419 26.6747 24.6041 30.2851 21.8521 29.4426L20.5198 33.7021C29.5336 36.3938 36.1111 32.2527 37.95 29.9454Z" fill="#171717" stroke="#8B8B8B" stroke-width="0.483655"/>
<path d="M18.2927 25.5062C26.7322 26.5579 28.7429 17.7777 29.171 13.4692L32.3048 13.9448C31.7879 26.1813 24.9588 30.1299 21.8177 29.5795C19.2238 29.1251 18.3113 26.8023 18.2927 25.5062Z" fill="#171717" stroke="#8B8B8B" stroke-width="0.483655"/>
</svg>
