<svg width="48" height="36" viewBox="0 0 48 36" fill="none" xmlns="http://www.w3.org/2000/svg">
<ellipse cx="26.1324" cy="17.9334" rx="17.5258" ry="17.1966" fill="#8B8B8B"/>
<path d="M17.4846 5.11008L17.8578 9.74818C26.7694 9.48386 32.4109 10.6443 35.4778 11.2928L37.0098 7.40547C37.1295 7.10172 37.0031 6.75528 36.7121 6.60749C29.7184 3.05508 22.062 3.57402 17.9781 4.43766C17.6664 4.50358 17.459 4.79258 17.4846 5.11008Z" fill="white" stroke="#8B8B8B" stroke-width="0.483655"/>
<path d="M26.7733 9.85687C32.3698 10.3078 37.3828 11.2621 40.962 12.4365C42.7534 13.0243 44.1726 13.663 45.1247 14.313C46.0944 14.9751 46.5019 15.5936 46.4575 16.1271C46.4129 16.6607 45.9079 17.2064 44.8408 17.7045C43.7934 18.1934 42.287 18.5964 40.4219 18.8895C36.6954 19.4752 31.5909 19.6142 25.9944 19.1632C20.398 18.7122 15.385 17.758 11.8057 16.5836C10.0144 15.9958 8.59516 15.357 7.64306 14.707C6.6731 14.0448 6.26565 13.4256 6.31031 12.892C6.35523 12.3585 6.86014 11.8135 7.92691 11.3156C8.97433 10.8267 10.4807 10.4237 12.3458 10.1306C16.0724 9.54485 21.1769 9.4059 26.7733 9.85687Z" fill="white" stroke="#8B8B8B" stroke-width="0.483655"/>
<path d="M6.6106 13.4131C6.6106 13.4131 21.6698 10.7535 46.1269 16.3646" stroke="#8B8B8B" stroke-width="0.483655"/>
<path d="M17.1127 18.0396C17.1127 16.3394 17.7547 13.6397 18.0774 12.8184C18.0774 12.8184 21.6346 12.7887 25.222 13.0549C28.8093 13.3212 32.3967 13.9128 32.3967 13.9128C32.0781 21.0638 29.1711 28.6731 23.4845 29.4586C19.6965 29.9819 18.0126 27.1622 17.5864 25.4083C10.14 24.3866 3.62954 26.1917 1 27.5436C5.96275 19.608 13.1791 18.504 17.1127 18.0396Z" fill="white" stroke="#8B8B8B" stroke-width="0.483655"/>
<path d="M22.9095 14.8879C24.4246 15.1119 25.4807 16.6417 25.2196 18.3428C24.9584 20.0438 23.4899 21.2006 21.9748 20.9768C20.4597 20.7528 19.4037 19.2229 19.6647 17.5218C19.9258 15.8207 21.3943 14.664 22.9095 14.8879Z" fill="white" stroke="#8B8B8B" stroke-width="0.483655"/>
<path d="M20.0539 17.2422C19.7726 17.0931 18.8377 16.8207 17.3476 16.9239" stroke="#8B8B8B" stroke-width="0.483655"/>
<path d="M37.95 29.9454C33.2921 26.4 33.5203 17.9611 34.2733 14.314L32.367 14.0718C30.8419 26.6747 24.6041 30.2851 21.8521 29.4426L20.5198 33.7021C29.5336 36.3938 36.1111 32.2527 37.95 29.9454Z" fill="white" stroke="#8B8B8B" stroke-width="0.483655"/>
<path d="M18.2927 25.5062C26.7322 26.5579 28.7429 17.7777 29.171 13.4692L32.3048 13.9448C31.7879 26.1813 24.9588 30.1299 21.8177 29.5795C19.2238 29.1251 18.3113 26.8023 18.2927 25.5062Z" fill="white" stroke="#8B8B8B" stroke-width="0.483655"/>
</svg>
