<svg width="14" height="10" viewBox="0 0 14 10" fill="none" xmlns="http://www.w3.org/2000/svg">
<g clip-path="url(#clip0_1304_8790)">
<path d="M3.23031 10C5.02231 10 6.45475 7.97042 6.45475 4.99726C6.45475 2.01865 5.02231 0 3.23031 0C1.43242 0 0 2.01865 0 4.99726C0 7.97042 1.43242 10 3.23031 10ZM3.23031 9.22658C1.93936 9.23203 0.848841 7.50959 0.848841 4.99726C0.848841 2.50137 1.93936 0.78442 3.23031 0.77345C4.53305 0.767968 5.62357 2.48492 5.62357 4.99726C5.62357 7.49313 4.53305 9.21557 3.23031 9.22658ZM1.95705 6.93367C2.94147 6.93367 3.59578 6.2973 3.59578 5.33188C3.59578 4.38289 2.94147 3.7411 1.95705 3.7411C0.966734 3.7411 0.31242 4.38289 0.31242 5.33188C0.31242 6.2973 0.966734 6.93367 1.95705 6.93367ZM1.49136 5.14538C1.27916 5.11795 1.14947 4.88207 1.19663 4.64071C1.24968 4.40484 1.4501 4.2293 1.65053 4.2677C1.86274 4.3061 1.99242 4.531 1.93936 4.76688C1.89221 5.00824 1.69768 5.17829 1.49136 5.14538ZM10.5516 10C12.3495 10 13.7819 7.97042 13.7819 4.99726C13.7819 2.01865 12.3495 0 10.5516 0C8.75955 0 7.32716 2.01865 7.32716 4.99726C7.32716 7.97042 8.75955 10 10.5516 10ZM10.5516 9.22107C9.2547 9.22107 8.15829 7.50414 8.15829 4.99726C8.15829 2.50137 9.24885 0.78442 10.5516 0.778938C11.8425 0.778938 12.9389 2.49589 12.9389 4.99726C12.9389 7.49864 11.8425 9.21557 10.5516 9.22107ZM9.27239 6.93367C10.2568 6.93367 10.9229 6.2973 10.9229 5.33188C10.9229 4.38289 10.2568 3.7411 9.27239 3.7411C8.288 3.7411 7.62776 4.38289 7.62776 5.33188C7.62776 6.2973 8.288 6.93367 9.27239 6.93367ZM8.80669 5.14538C8.60038 5.11246 8.4648 4.88207 8.51786 4.64071C8.57092 4.40484 8.76547 4.2293 8.97179 4.2677C9.18396 4.30061 9.30776 4.531 9.2547 4.76688C9.20756 5.00824 9.01301 5.17829 8.80669 5.14538Z" fill="gray"/>
</g>
<defs>
<clipPath id="clip0_1304_8790">
<rect width="14" height="10" fill="gray"/>
</clipPath>
</defs>
</svg>
