<svg width="39" height="39" viewBox="0 0 39 39" fill="none" xmlns="http://www.w3.org/2000/svg">
<g opacity="0.5">
<g clip-path="url(#clip0_1304_6702)">
<g clip-path="url(#clip1_1304_6702)">
<path fill-rule="evenodd" clip-rule="evenodd" d="M16 12H23C24.061 12 25.078 12.421 25.828 13.172C26.579 13.922 27 14.939 27 16V23C27 24.061 26.579 25.078 25.828 25.828C25.078 26.579 24.061 27 23 27H16C14.939 27 13.922 26.579 13.172 25.828C12.421 25.078 12 24.061 12 23V16C12 14.939 12.421 13.922 13.172 13.172C13.922 12.421 14.939 12 16 12ZM16 14H23C23.53 14 24.039 14.211 24.414 14.586C24.789 14.961 25 15.47 25 16V23C25 23.53 24.789 24.039 24.414 24.414C24.039 24.789 23.53 25 23 25H16C15.47 25 14.961 24.789 14.586 24.414C14.211 24.039 14 23.53 14 23V16C14 15.47 14.211 14.961 14.586 14.586C14.961 14.211 15.47 14 16 14ZM19.5 16C20.192 16 20.869 16.205 21.445 16.59C22.02 16.974 22.469 17.521 22.734 18.161C22.998 18.8 23.068 19.504 22.933 20.183C22.798 20.862 22.464 21.485 21.975 21.975C21.485 22.464 20.862 22.798 20.183 22.933C19.504 23.068 18.8 22.998 18.161 22.734C17.521 22.469 16.974 22.02 16.59 21.445C16.205 20.869 16 20.192 16 19.5C16 18.572 16.369 17.682 17.025 17.025C17.682 16.369 18.572 16 19.5 16ZM19.5 18C19.797 18 20.087 18.088 20.333 18.253C20.58 18.418 20.772 18.652 20.886 18.926C20.999 19.2 21.029 19.502 20.971 19.793C20.913 20.084 20.77 20.351 20.561 20.561C20.351 20.77 20.084 20.913 19.793 20.971C19.502 21.029 19.2 20.999 18.926 20.886C18.652 20.772 18.418 20.58 18.253 20.333C18.088 20.087 18 19.797 18 19.5C18 19.102 18.158 18.721 18.439 18.439C18.721 18.158 19.102 18 19.5 18Z" fill="#171717"/>
</g>
</g>
<rect x="0.5" y="0.5" width="38" height="38" rx="19" stroke="#8B8B8B"/>
</g>
<defs>
<clipPath id="clip0_1304_6702">
<rect width="39" height="39" rx="19.5" fill="white"/>
</clipPath>
<clipPath id="clip1_1304_6702">
<rect width="43" height="43" fill="white" transform="translate(-2 -2)"/>
</clipPath>
</defs>
</svg>
