<svg width="39" height="39" viewBox="0 0 39 39" fill="none" xmlns="http://www.w3.org/2000/svg">
<g opacity="0.5">
<g clip-path="url(#clip0_1304_6981)">
<g clip-path="url(#clip1_1304_6981)">
<path fill-rule="evenodd" clip-rule="evenodd" d="M23.9798 24.0996C23.9618 24.2986 23.8838 24.4876 23.7568 24.6426C23.6308 24.7966 23.4608 24.9096 23.2688 24.9666C23.0768 25.0236 22.8728 25.0216 22.6828 24.9616C22.4918 24.9016 22.3238 24.7857 22.1998 24.6287C21.1098 23.7617 19.4098 22.5136 19.4098 22.5136C19.4098 22.5136 18.1798 24.6807 17.9598 24.9027C17.8868 24.9637 17.8028 25.0096 17.7118 25.0356C17.6198 25.0626 17.5248 25.0696 17.4308 25.0576C17.3358 25.0446 17.2458 25.0127 17.1648 24.9627C17.0838 24.9137 17.0138 24.8477 16.9598 24.7697C16.9488 24.7357 16.9348 24.7016 16.9198 24.6696L17.6098 21.2177L22.5298 16.3846L15.8198 20.2136C15.8198 20.2136 12.7898 19.3076 12.3398 19.1306C12.2238 19.0676 12.1278 18.9726 12.0638 18.8566C11.9998 18.7406 11.9688 18.6097 11.9768 18.4777C11.9838 18.3457 12.0288 18.2187 12.1048 18.1107C12.1818 18.0027 12.2878 17.9187 12.4098 17.8687C13.0498 17.5427 24.3398 13.2306 24.7198 13.1196C25.0998 13.0086 26.0998 12.7196 25.9898 13.6926C25.8798 14.6656 24.0898 23.5656 23.9798 24.0996Z" fill="#171717"/>
</g>
</g>
<rect x="0.5" y="0.5" width="38" height="38" rx="19" stroke="#8B8B8B"/>
</g>
<defs>
<clipPath id="clip0_1304_6981">
<rect width="39" height="39" rx="19.5" fill="white"/>
</clipPath>
<clipPath id="clip1_1304_6981">
<rect width="43" height="43" fill="white" transform="translate(-2 -2)"/>
</clipPath>
</defs>
</svg>
