<svg width="39" height="39" viewBox="0 0 39 39" fill="none" xmlns="http://www.w3.org/2000/svg">
<g opacity="0.5">
<g clip-path="url(#clip0_1304_7260)">
<g clip-path="url(#clip1_1304_7260)">
<path fill-rule="evenodd" clip-rule="evenodd" d="M23 26H16C14.895 25.954 13.854 25.472 13.104 24.66C12.355 23.847 11.957 22.771 12 21.666V17.333C11.958 16.229 12.355 15.152 13.105 14.34C13.855 13.528 14.896 13.046 16 13H23C24.104 13.046 25.145 13.528 25.895 14.341C26.645 15.153 27.042 16.229 27 17.334V21.667C27.042 22.772 26.645 23.848 25.895 24.66C25.145 25.472 24.104 25.954 23 26ZM25 17.255C25.031 16.693 24.837 16.141 24.463 15.72C24.088 15.3 23.562 15.044 23 15.01H16C15.438 15.044 14.912 15.3 14.537 15.72C14.162 16.141 13.969 16.693 14 17.255V21.744C13.969 22.306 14.162 22.858 14.537 23.279C14.912 23.699 15.438 23.955 16 23.989H23C23.562 23.955 24.088 23.699 24.463 23.279C24.837 22.858 25.031 22.306 25 21.744V17.255ZM18 16.987L22 19.5L18 22.011V16.987Z" fill="#171717"/>
</g>
</g>
<rect x="0.5" y="0.5" width="38" height="38" rx="19" stroke="#8B8B8B"/>
</g>
<defs>
<clipPath id="clip0_1304_7260">
<rect width="39" height="39" rx="19.5" fill="white"/>
</clipPath>
<clipPath id="clip1_1304_7260">
<rect width="43" height="43" fill="white" transform="translate(-2 -2)"/>
</clipPath>
</defs>
</svg>
