<svg width="39" height="39" viewBox="0 0 39 39" fill="none" xmlns="http://www.w3.org/2000/svg">
<g opacity="0.5">
<g clip-path="url(#clip0_1304_7539)">
<g clip-path="url(#clip1_1304_7539)">
<path fill-rule="evenodd" clip-rule="evenodd" d="M19.5 27.0003C18.086 26.9963 16.702 26.5913 15.51 25.8303L12 27.0003L13.17 23.4893C12.289 22.0823 11.9 20.4223 12.064 18.7713C12.229 17.1193 12.939 15.5683 14.081 14.3643C15.223 13.1593 16.733 12.3683 18.374 12.1153C20.015 11.8633 21.693 12.1623 23.145 12.9683C24.596 13.7733 25.739 15.0383 26.393 16.5633C27.048 18.0893 27.176 19.7893 26.759 21.3963C26.342 23.0033 25.402 24.4253 24.088 25.4403C22.774 26.4543 21.16 27.0033 19.5 27.0003ZM21.13 20.6363C21.629 20.7973 22.136 20.9313 22.65 21.0363C22.704 21.0443 22.756 21.0633 22.802 21.0913C22.849 21.1203 22.89 21.1573 22.921 21.2023C22.953 21.2463 22.975 21.2973 22.987 21.3503C22.999 21.4033 23 21.4583 22.99 21.5123V21.8003C22.995 21.9033 22.976 22.0053 22.934 22.0993C22.893 22.1943 22.829 22.2773 22.75 22.3423C22.504 22.5923 22.212 22.7933 21.89 22.9343C21.415 22.9903 20.934 22.9493 20.477 22.8113C20.019 22.6733 19.595 22.4433 19.23 22.1343C18.76 21.8193 18.321 21.4593 17.92 21.0593C17.521 20.6563 17.159 20.2173 16.84 19.7483C16.534 19.3833 16.305 18.9593 16.169 18.5023C16.034 18.0463 15.993 17.5663 16.05 17.0933C16.191 16.7733 16.391 16.4833 16.64 16.2373C16.703 16.1563 16.786 16.0923 16.88 16.0513C16.974 16.0103 17.078 15.9923 17.18 16.0013H17.47C17.579 15.9863 17.69 16.0153 17.778 16.0813C17.867 16.1483 17.925 16.2473 17.94 16.3563C18.09 16.9483 18.2 17.3763 18.35 17.8563C18.41 18.0563 18.34 18.1043 18.18 18.2243C18.08 18.3013 18 18.3573 17.92 18.4173C17.874 18.4373 17.832 18.4673 17.798 18.5043C17.764 18.5413 17.738 18.5853 17.722 18.6333C17.706 18.6813 17.7 18.7323 17.705 18.7823C17.71 18.8323 17.725 18.8813 17.75 18.9253C18.005 19.4163 18.332 19.8673 18.72 20.2633C19.115 20.6513 19.567 20.9773 20.06 21.2303C20.104 21.2543 20.153 21.2703 20.203 21.2743C20.253 21.2793 20.304 21.2733 20.352 21.2573C20.4 21.2413 20.444 21.2163 20.482 21.1823C20.519 21.1483 20.549 21.1073 20.57 21.0613C20.63 20.9803 20.68 20.9053 20.76 20.8003C20.773 20.7643 20.792 20.7313 20.818 20.7033C20.843 20.6753 20.874 20.6523 20.909 20.6363C20.943 20.6203 20.981 20.6113 21.019 20.6103C21.057 20.6093 21.095 20.6153 21.13 20.6293V20.6363Z" fill="#171717"/>
</g>
</g>
<rect x="0.5" y="0.5" width="38" height="38" rx="19" stroke="#8B8B8B"/>
</g>
<defs>
<clipPath id="clip0_1304_7539">
<rect width="39" height="39" rx="19.5" fill="white"/>
</clipPath>
<clipPath id="clip1_1304_7539">
<rect width="43" height="43" fill="white" transform="translate(-2 -2)"/>
</clipPath>
</defs>
</svg>
