<svg width="10" height="13" viewBox="0 0 10 13" fill="none" xmlns="http://www.w3.org/2000/svg">
<path d="M8.25097 4.93406C8.2159 4.89014 8.1734 4.89877 8.15113 4.90773C8.13247 4.9153 8.08971 4.93947 8.09563 5.00005C8.10274 5.0728 8.10672 5.14696 8.10748 5.22052C8.11066 5.52566 7.98825 5.82461 7.77167 6.04071C7.55646 6.25541 7.27341 6.37109 6.97202 6.36774C6.56034 6.36248 6.21889 6.14776 5.98456 5.74676C5.7908 5.41519 5.87596 4.98754 5.96613 4.53475C6.01889 4.26972 6.07345 3.99566 6.07345 3.73482C6.07345 1.70386 4.7081 0.532135 3.89423 0.0144472C3.8774 0.0037578 3.86138 0 3.84718 0C3.8241 0 3.80582 0.00995309 3.79681 0.0160468C3.77934 0.0278788 3.75139 0.0548435 3.76037 0.102578C4.07146 1.75454 3.14359 2.74809 2.16123 3.79997C1.14865 4.88422 0.000976562 6.11315 0.000976562 8.32954C0.000976562 10.9049 2.09613 13 4.67144 13C6.79185 13 8.66138 11.5217 9.21774 9.40495C9.59712 7.96168 9.19956 6.1232 8.25097 4.93406ZM4.78795 12.0031C4.14309 12.0325 3.5298 11.8012 3.06137 11.3533C2.59797 10.9102 2.33218 10.2918 2.33218 9.6567C2.33218 8.46485 2.78789 7.58989 4.01359 6.42832C4.03365 6.4093 4.05419 6.40329 4.07209 6.40329C4.08832 6.40329 4.10238 6.40824 4.11206 6.41288C4.13245 6.42271 4.16596 6.44703 4.16144 6.49964C4.11762 7.00961 4.11838 7.4329 4.16368 7.7578C4.27946 8.58768 4.88698 9.14529 5.67548 9.14529C6.06208 9.14529 6.43031 8.9998 6.71238 8.73561C6.74511 8.70494 6.78167 8.70885 6.79568 8.71182C6.81424 8.71583 6.8391 8.72721 6.85213 8.75861C6.96908 9.04098 7.02885 9.34072 7.02976 9.64944C7.03349 10.8917 6.02782 11.9475 4.78795 12.0031Z" fill="#8C24F5"/>
</svg>
