<svg width="15" height="15" viewBox="0 0 15 15" fill="none" xmlns="http://www.w3.org/2000/svg">
<path fill-rule="evenodd" clip-rule="evenodd" d="M4 0H11C12.061 0 13.078 0.420997 13.828 1.172C14.579 1.922 15 2.939 15 4V11C15 12.061 14.579 13.078 13.828 13.828C13.078 14.579 12.061 15 11 15H4C2.939 15 1.922 14.579 1.172 13.828C0.420997 13.078 0 12.061 0 11V4C0 2.939 0.420997 1.922 1.172 1.172C1.922 0.420997 2.939 0 4 0ZM4 2H11C11.53 2 12.039 2.211 12.414 2.586C12.789 2.961 13 3.47 13 4V11C13 11.53 12.789 12.039 12.414 12.414C12.039 12.789 11.53 13 11 13H4C3.47 13 2.961 12.789 2.586 12.414C2.211 12.039 2 11.53 2 11V4C2 3.47 2.211 2.961 2.586 2.586C2.961 2.211 3.47 2 4 2ZM7.5 4C8.192 4 8.86901 4.20503 9.44501 4.59003C10.02 4.97403 10.469 5.52101 10.734 6.16101C10.998 6.80001 11.068 7.50398 10.933 8.18298C10.798 8.86198 10.464 9.48498 9.97501 9.97498C9.48501 10.464 8.862 10.798 8.183 10.933C7.504 11.068 6.8 10.998 6.161 10.734C5.521 10.469 4.974 10.02 4.59 9.44501C4.205 8.86901 4 8.192 4 7.5C4 6.572 4.36899 5.68202 5.02499 5.02502C5.68199 4.36902 6.572 4 7.5 4ZM7.5 6C7.797 6 8.08699 6.08799 8.33299 6.25299C8.57999 6.41799 8.772 6.65203 8.886 6.92603C8.999 7.20003 9.02899 7.50203 8.97099 7.79303C8.91299 8.08403 8.77 8.35097 8.561 8.56097C8.351 8.76997 8.084 8.91301 7.793 8.97101C7.502 9.02901 7.2 8.99899 6.92599 8.88599C6.65199 8.77199 6.41801 8.58001 6.25301 8.33301C6.08801 8.08701 6 7.797 6 7.5C6 7.102 6.158 6.72103 6.439 6.43903C6.721 6.15803 7.102 6 7.5 6Z" fill="white"/>
</svg>
