<svg width="15" height="15" viewBox="0 0 15 15" fill="none" xmlns="http://www.w3.org/2000/svg">
<path fill-rule="evenodd" clip-rule="evenodd" d="M7.5 14.9998C6.086 14.9958 4.70201 14.5908 3.51001 13.8298L0 14.9998L1.17001 11.4888C0.289013 10.0818 -0.100005 8.42181 0.0639954 6.77081C0.228995 5.11881 0.938994 3.56783 2.08099 2.36383C3.22299 1.15883 4.73299 0.367805 6.37399 0.114805C8.01499 -0.137195 9.69299 0.161802 11.145 0.967802C12.596 1.7728 13.739 3.0378 14.393 4.5628C15.048 6.0888 15.176 7.78881 14.759 9.39581C14.342 11.0028 13.402 12.4248 12.088 13.4398C10.774 14.4538 9.16 15.0028 7.5 14.9998ZM9.13 8.6358C9.629 8.7968 10.136 8.93083 10.65 9.03583C10.704 9.04383 10.756 9.06282 10.802 9.09082C10.849 9.11982 10.89 9.15681 10.921 9.20181C10.953 9.24581 10.975 9.29682 10.987 9.34982C10.999 9.40282 11 9.45781 10.99 9.51181V9.7998C10.995 9.9028 10.976 10.0048 10.934 10.0988C10.893 10.1938 10.829 10.2768 10.75 10.3418C10.504 10.5918 10.212 10.7928 9.89001 10.9338C9.41501 10.9898 8.93399 10.9488 8.47699 10.8108C8.01899 10.6728 7.59501 10.4428 7.23001 10.1338C6.76001 9.81882 6.32101 9.45881 5.92001 9.05881C5.52101 8.65581 5.159 8.2168 4.84 7.7478C4.534 7.3828 4.30501 6.95883 4.16901 6.50183C4.03401 6.04583 3.99299 5.5658 4.04999 5.0928C4.19099 4.7728 4.39101 4.48281 4.64001 4.23681C4.70301 4.15581 4.78601 4.09181 4.88 4.05081C4.974 4.00981 5.07799 3.99182 5.17999 4.00082H5.47C5.579 3.98582 5.69002 4.01481 5.77802 4.08081C5.86702 4.14781 5.925 4.2468 5.94 4.3558C6.09 4.9478 6.20001 5.3758 6.35001 5.8558C6.41001 6.0558 6.33999 6.10381 6.17999 6.22381C6.07999 6.30081 6.00001 6.35681 5.92001 6.41681C5.87401 6.43681 5.832 6.46681 5.798 6.50381C5.764 6.54081 5.73798 6.58481 5.72198 6.63281C5.70599 6.68081 5.69999 6.73183 5.70499 6.78183C5.70999 6.83183 5.725 6.8808 5.75 6.9248C6.005 7.4158 6.332 7.86682 6.72 8.26282C7.115 8.65082 7.567 8.97683 8.06 9.22983C8.104 9.25383 8.153 9.2698 8.203 9.2738C8.253 9.2788 8.30399 9.2728 8.35199 9.2568C8.39999 9.2408 8.44399 9.21582 8.48199 9.18182C8.51899 9.14782 8.54901 9.10682 8.57001 9.06082C8.63001 8.97982 8.68001 8.9048 8.76001 8.7998C8.77301 8.7638 8.79199 8.73082 8.81799 8.70282C8.84299 8.67482 8.874 8.6518 8.909 8.6358C8.943 8.6198 8.98101 8.6108 9.01901 8.6098C9.05701 8.6088 9.09501 8.61481 9.13 8.62881V8.6358Z" fill="white"/>
</svg>
