<svg width="15" height="13" viewBox="0 0 15 13" fill="none" xmlns="http://www.w3.org/2000/svg">
<path fill-rule="evenodd" clip-rule="evenodd" d="M11 13H3.99998C2.89498 12.954 1.85398 12.472 1.10398 11.66C0.354978 10.847 -0.0430187 9.77102 -1.87366e-05 8.66602V4.33301C-0.0420187 3.22901 0.354985 2.15203 1.10498 1.34003C1.85498 0.528027 2.89598 0.046 3.99998 0H11C12.104 0.046 13.145 0.528003 13.895 1.341C14.645 2.153 15.042 3.22898 15 4.33398V8.66699C15.042 9.77199 14.645 10.848 13.895 11.66C13.145 12.472 12.104 12.954 11 13ZM13 4.255C13.031 3.693 12.837 3.14097 12.463 2.71997C12.088 2.29997 11.562 2.04401 11 2.01001H3.99998C3.43798 2.04401 2.91198 2.29997 2.53698 2.71997C2.16198 3.14097 1.96898 3.693 1.99998 4.255V8.74402C1.96898 9.30602 2.16198 9.85799 2.53698 10.279C2.91198 10.699 3.43798 10.955 3.99998 10.989H11C11.562 10.955 12.088 10.699 12.463 10.279C12.837 9.85799 13.031 9.30602 13 8.74402V4.255ZM5.99998 3.987L9.99998 6.5L5.99998 9.01099V3.987Z" fill="white"/>
</svg>
