<svg width="15" height="13" viewBox="0 0 15 13" fill="none" xmlns="http://www.w3.org/2000/svg">
<path fill-rule="evenodd" clip-rule="evenodd" d="M12.9801 11.1001C12.9621 11.2991 12.8841 11.4881 12.7571 11.6431C12.6311 11.7971 12.4611 11.9101 12.2691 11.9671C12.0771 12.0241 11.8731 12.0221 11.6831 11.9621C11.4921 11.9021 11.3241 11.7862 11.2001 11.6292C10.1101 10.7622 8.41008 9.5141 8.41008 9.5141C8.41008 9.5141 7.18007 11.6811 6.96007 11.9031C6.88707 11.9641 6.80308 12.0101 6.71208 12.0361C6.62008 12.0631 6.52508 12.0701 6.43108 12.0581C6.33608 12.0451 6.24609 12.0131 6.16509 11.9631C6.08409 11.9141 6.01407 11.8481 5.96007 11.7701C5.94907 11.7361 5.93509 11.7021 5.92009 11.6701L6.61006 8.21814L11.5301 3.38514L4.82008 7.21412C4.82008 7.21412 1.79007 6.30811 1.34007 6.13111C1.22407 6.06811 1.12807 5.97312 1.06407 5.85712C1.00007 5.74112 0.969067 5.61015 0.977067 5.47815C0.984067 5.34615 1.02909 5.21915 1.10509 5.11115C1.18209 5.00315 1.28808 4.91914 1.41008 4.86914C2.05008 4.54314 13.3401 0.231121 13.7201 0.120121C14.1001 0.00912113 15.1001 -0.279881 14.9901 0.693119C14.8801 1.66612 13.0901 10.5661 12.9801 11.1001Z" fill="white"/>
</svg>
