<svg width="20" height="20" viewBox="0 0 20 20" fill="none" xmlns="http://www.w3.org/2000/svg">
<g clip-path="url(#clip0_328_2343)">
<path d="M2 7.25831C2 10.6268 4.82352 13.9399 9.28422 16.7865C9.45031 16.8893 9.68758 17 9.85367 17C10.0198 17 10.257 16.8893 10.4311 16.7865C14.8838 13.9399 17.7073 10.6268 17.7073 7.25831C17.7073 4.45915 15.7855 2.48235 13.2229 2.48235C11.7598 2.48235 10.5734 3.17818 9.85367 4.24566C9.14976 3.18608 7.94759 2.48235 6.48442 2.48235C3.9219 2.48235 2 4.45915 2 7.25831ZM3.27336 7.25831C3.27336 5.15498 4.6337 3.75541 6.4686 3.75541C7.9555 3.75541 8.80967 4.68055 9.31585 5.47127C9.5294 5.78756 9.66385 5.87455 9.85367 5.87455C10.0435 5.87455 10.1621 5.77966 10.3915 5.47127C10.9372 4.69637 11.7598 3.75541 13.2388 3.75541C15.0736 3.75541 16.434 5.15498 16.434 7.25831C16.434 10.1998 13.3258 13.3706 10.0198 15.5688C9.94067 15.6242 9.8853 15.6637 9.85367 15.6637C9.82203 15.6637 9.76666 15.6242 9.69548 15.5688C6.38161 13.3706 3.27336 10.1998 3.27336 7.25831Z" fill="#171717"/>
</g>
<defs>
<clipPath id="clip0_328_2343">
<rect width="16" height="15" fill="white" transform="translate(2 2)"/>
</clipPath>
</defs>
</svg>
