<svg width="20" height="20" viewBox="0 0 20 20" fill="none" xmlns="http://www.w3.org/2000/svg">
<g clip-path="url(#clip0_328_2348)">
<path d="M7.76837 13.5401H16.0484C16.3252 13.5401 16.5664 13.3123 16.5664 13.0062C16.5664 12.7 16.3252 12.4722 16.0484 12.4722H7.88899C7.48457 12.4722 7.23624 12.1875 7.17238 11.7532L6.00877 3.82962C5.93782 3.28145 5.73915 3.0038 5.01545 3.0038H2.52504C2.24124 3.0038 2 3.25297 2 3.53774C2 3.82962 2.24124 4.07879 2.52504 4.07879H4.92321L6.05844 11.8956C6.20744 12.9065 6.73958 13.5401 7.76837 13.5401ZM6.46286 11.0057H16.0626C17.0985 11.0057 17.6307 10.365 17.7797 9.34692L18.3473 5.58092C18.3614 5.48838 18.3757 5.37447 18.3757 5.3104C18.3757 4.96868 18.1202 4.73375 17.73 4.73375H5.84558L5.85267 5.80873H17.1695L16.6657 9.21879C16.6089 9.66017 16.3748 9.93784 15.9562 9.93784H6.44867L6.46286 11.0057ZM8.32889 17C8.96745 17 9.47833 16.4945 9.47833 15.8467C9.47833 15.2059 8.96745 14.6934 8.32889 14.6934C7.68324 14.6934 7.17238 15.2059 7.17238 15.8467C7.17238 16.4945 7.68324 17 8.32889 17ZM14.9629 17C15.6086 17 16.1194 16.4945 16.1194 15.8467C16.1194 15.2059 15.6086 14.6934 14.9629 14.6934C14.3243 14.6934 13.8064 15.2059 13.8064 15.8467C13.8064 16.4945 14.3243 17 14.9629 17Z" fill="#171717"/>
</g>
<defs>
<clipPath id="clip0_328_2348">
<rect width="17" height="15" fill="white" transform="translate(2 2)"/>
</clipPath>
</defs>
</svg>
