<svg width="20" height="20" viewBox="0 0 20 20" fill="none" xmlns="http://www.w3.org/2000/svg">
<g clip-path="url(#clip0_328_2353)">
<path d="M9.85749 17.9922C14.1945 17.9922 17.715 14.4096 17.715 9.9961C17.715 5.58256 14.1945 2 9.85749 2C5.52046 2 2 5.58256 2 9.9961C2 14.4096 5.52046 17.9922 9.85749 17.9922ZM9.85749 16.6595C6.23688 16.6595 3.30958 13.6806 3.30958 9.9961C3.30958 6.31162 6.23688 3.33269 9.85749 3.33269C13.4781 3.33269 16.4054 6.31162 16.4054 9.9961C16.4054 13.6806 13.4781 16.6595 9.85749 16.6595ZM15.1266 15.1622L15.1035 15.076C14.726 13.9236 12.6924 12.6614 9.85749 12.6614C7.03033 12.6614 4.99663 13.9236 4.61146 15.0681L4.58835 15.1622C5.97496 16.5576 8.35532 17.3729 9.85749 17.3729C11.3674 17.3729 13.7246 16.5654 15.1266 15.1622ZM9.85749 11.3288C11.3442 11.3444 12.4997 10.0588 12.4997 8.37336C12.4997 6.78982 11.3365 5.48066 9.85749 5.48066C8.37843 5.48066 7.20751 6.78982 7.21522 8.37336C7.22292 10.0588 8.37843 11.3131 9.85749 11.3288Z" fill="#171717"/>
</g>
<defs>
<clipPath id="clip0_328_2353">
<rect width="16" height="16" fill="white" transform="translate(2 2)"/>
</clipPath>
</defs>
</svg>
