<svg width="20" height="20" viewBox="0 0 20 20" fill="none" xmlns="http://www.w3.org/2000/svg">
<g clip-path="url(#clip0_328_2337)">
<path d="M5.32921 15.6323H7.69354C8.68548 15.6323 9.22223 15.0651 9.22223 14.0089V3.63757C9.22223 2.5813 8.68548 2.01418 7.69354 2.01418H5.32921C4.33727 2.01418 3.80054 2.5813 3.80054 3.63757V14.0089C3.80054 15.0651 4.33727 15.6323 5.32921 15.6323ZM5.39035 14.5618C5.02347 14.5618 4.82644 14.3562 4.82644 13.9876V3.65884C4.82644 3.2902 5.02347 3.08462 5.39035 3.08462H7.63239C7.99927 3.08462 8.1963 3.2902 8.1963 3.65884V13.9876C8.1963 14.3562 7.99927 14.5618 7.63239 14.5618H5.39035ZM12.069 15.6323H14.4333C15.4184 15.6323 15.9619 15.0651 15.9619 14.0089V8.65662C15.9619 7.60745 15.4184 7.03323 14.4333 7.03323H12.069C11.077 7.03323 10.5334 7.60745 10.5334 8.65662V14.0089C10.5334 15.0651 11.077 15.6323 12.069 15.6323ZM12.1233 14.5618C11.7632 14.5618 11.5593 14.3562 11.5593 13.9876V8.67789C11.5593 8.30926 11.7632 8.10368 12.1233 8.10368H14.3721C14.7322 8.10368 14.9361 8.30926 14.9361 8.67789V13.9876C14.9361 14.3562 14.7322 14.5618 14.3721 14.5618H12.1233Z" fill="#171717"/>
<path d="M2.47559 18H17.2799C17.5449 18 17.7486 17.759 17.7486 17.4825C17.7486 17.2061 17.5449 16.9579 17.2799 16.9579H2.47559C2.20382 16.9579 2 17.2061 2 17.4825C2 17.759 2.20382 18 2.47559 18Z" fill="#171717"/>
</g>
<defs>
<clipPath id="clip0_328_2337">
<rect width="16" height="16" fill="white" transform="translate(2 2)"/>
</clipPath>
</defs>
</svg>
