<svg width="15" height="20" viewBox="0 0 15 20" fill="none" xmlns="http://www.w3.org/2000/svg">
<g opacity="0.5">
<g clip-path="url(#clip0_328_6869)">
<g clip-path="url(#clip1_328_6869)">
<mask id="mask0_328_6869" style="mask-type:luminance" maskUnits="userSpaceOnUse" x="-205" y="-298" width="1333" height="321">
<path d="M1128 -297.5H-205V22.5H1128V-297.5Z" fill="white"/>
</mask>
<g mask="url(#mask0_328_6869)">
<path opacity="0.55" fill-rule="evenodd" clip-rule="evenodd" d="M4.74611 11.7466C5.07811 9.53556 5.5261 7.19655 5.6461 6.42555C5.7221 5.92555 5.9841 5.51356 6.9861 5.51356H10.6411C11.4891 5.51356 13.5191 5.41357 14.4251 6.68657C15.4741 8.16157 14.7871 10.8795 14.3381 11.8215C13.9181 12.6945 13.2621 13.4315 12.4441 13.9505C11.5661 14.3205 10.6231 14.5105 9.67111 14.5105C8.66111 14.5245 8.39611 14.3936 8.22711 15.5006C8.05811 16.6076 7.6921 18.5676 7.6611 18.8116C7.6571 18.9146 7.63211 19.0156 7.58611 19.1076C7.54011 19.1996 7.47511 19.2806 7.39511 19.3456C7.31511 19.4106 7.2221 19.4576 7.1221 19.4836C7.0221 19.5096 6.91811 19.5136 6.81711 19.4956C5.98511 19.4956 4.71711 19.4956 4.28511 19.4956C3.94611 19.4956 3.6381 19.5735 3.7301 18.8605C3.8731 17.7465 4.54611 13.0816 4.74611 11.7466Z" fill="white"/>
<path opacity="0.8" fill-rule="evenodd" clip-rule="evenodd" d="M1.238 9.08096C1.593 6.89896 2.194 3.16097 2.32 2.40097C2.402 1.90097 2.68299 1.50098 3.75599 1.50098H8.75599C9.66399 1.50098 12.006 1.60795 13.015 2.72195C14.062 3.87895 14.368 5.58196 13.493 7.78296C13.237 8.48996 12.841 9.13896 12.328 9.68896C11.814 10.239 11.195 10.679 10.507 10.983C9.159 11.412 7.742 11.583 6.33 11.489C5.248 11.503 4.904 11.389 4.723 12.483C4.542 13.577 4.00399 16.583 3.97099 16.826C3.93799 17.069 3.95799 17.501 3.07099 17.501C2.18399 17.501 1.05499 17.501 0.589991 17.501C0.225991 17.501 -0.12201 17.575 -0.00501015 16.874C0.16499 15.847 1.024 10.4 1.238 9.08096Z" fill="white"/>
<path fill-rule="evenodd" clip-rule="evenodd" d="M13.4939 7.78272C13.2379 8.48972 12.8419 9.13873 12.3289 9.68872C11.8149 10.2387 11.1959 10.6787 10.5079 10.9827C9.10592 11.4117 7.63692 11.5837 6.17392 11.4887C5.09292 11.5027 4.84292 11.3887 4.66092 12.4827C4.66092 12.4827 4.62793 12.4937 4.62793 12.4977H4.63492C4.67892 12.1977 4.71793 11.9327 4.74593 11.7447C5.07793 9.53372 5.52592 7.19474 5.64592 6.42374C5.72192 5.92374 5.98392 5.51172 6.98592 5.51172H10.6409C11.7859 5.40072 12.9379 5.64172 13.9409 6.20472C13.8509 6.74572 13.7019 7.27472 13.4939 7.78272Z" fill="white"/>
</g>
</g>
</g>
</g>
<defs>
<clipPath id="clip0_328_6869">
<rect width="15" height="19" fill="white" transform="translate(0 0.5)"/>
</clipPath>
<clipPath id="clip1_328_6869">
<rect width="1333" height="320" fill="white" transform="translate(-205 -297.5)"/>
</clipPath>
</defs>
</svg>
