<svg width="18" height="18" viewBox="0 0 18 18" fill="none" xmlns="http://www.w3.org/2000/svg">
<g opacity="0.5">
<g clip-path="url(#clip0_328_8849)">
<g clip-path="url(#clip1_328_8849)">
<mask id="mask0_328_8849" style="mask-type:luminance" maskUnits="userSpaceOnUse" x="-619" y="-299" width="1333" height="320">
<path d="M714 -299H-619V21H714V-299Z" fill="white"/>
</mask>
<g mask="url(#mask0_328_8849)">
<path d="M12.17 9.60599L15.84 17.28H10.08L7.06799 10.983C6.58399 11.342 6.19999 11.832 5.96899 12.403C5.81299 12.789 5.72699 13.212 5.72699 13.655C5.72699 14.482 6.02701 15.239 6.52301 15.819C6.03401 17.095 4.809 18 3.375 18C1.511 18 0 16.472 0 14.586C0 14.178 0.0709888 13.787 0.200989 13.424C0.882989 10.929 3.22102 8.89501 5.83002 8.39401L2.15997 0.720001H7.91998L10.932 7.017C11.417 6.658 11.8 6.16798 12.031 5.59698C12.187 5.21098 12.273 4.788 12.273 4.345C12.273 3.518 11.973 2.761 11.477 2.181C11.966 0.905 13.191 0 14.625 0C16.489 0 18 1.528 18 3.414C18 3.822 17.929 4.21301 17.8 4.57501C17.117 7.07001 14.779 9.10499 12.17 9.60599Z" fill="white"/>
</g>
</g>
</g>
</g>
<defs>
<clipPath id="clip0_328_8849">
<rect width="18" height="18" fill="white"/>
</clipPath>
<clipPath id="clip1_328_8849">
<rect width="1333" height="320" fill="white" transform="translate(-619 -299)"/>
</clipPath>
</defs>
</svg>
