<svg width="20" height="20" viewBox="0 0 20 20" fill="none" xmlns="http://www.w3.org/2000/svg">
<g opacity="0.5">
<g clip-path="url(#clip0_328_8453)">
<g clip-path="url(#clip1_328_8453)">
<mask id="mask0_328_8453" style="mask-type:luminance" maskUnits="userSpaceOnUse" x="-579" y="-298" width="1333" height="320">
<path d="M754 -298H-579V22H754V-298Z" fill="white"/>
</mask>
<g mask="url(#mask0_328_8453)">
<path d="M19.606 14.4679C19.72 14.4219 19.818 14.3419 19.887 14.2389C19.956 14.1359 19.992 14.0149 19.991 13.8909V8.11588C19.99 7.90088 19.905 7.69487 19.754 7.54187C19.603 7.38887 19.399 7.30088 19.184 7.29688H19.113C17.839 7.29988 16.6169 7.80087 15.7069 8.69287C15.3919 9.00487 15.213 9.42886 15.21 9.87286C15.207 10.3159 15.38 10.7429 15.691 11.0589L18.922 14.3319C19.009 14.4209 19.121 14.4809 19.243 14.5059C19.365 14.5299 19.491 14.5169 19.606 14.4679Z" fill="white"/>
<path d="M0.388875 5.52818C0.273875 5.57418 0.175893 5.65415 0.106893 5.75715C0.0388929 5.86015 0.00292655 5.98118 0.00392655 6.10518V11.8852C0.00492655 12.1002 0.0899261 12.3062 0.240926 12.4582C0.390926 12.6112 0.595872 12.6992 0.810872 12.7032H0.881917C2.15592 12.7002 3.37789 12.1992 4.28689 11.3072C4.60189 10.9952 4.7809 10.5712 4.7839 10.1272C4.78589 9.68418 4.6129 9.25715 4.3019 8.94215L1.06991 5.66917C0.983905 5.58017 0.872912 5.51818 0.751912 5.49318C0.629912 5.46818 0.503875 5.48018 0.388875 5.52818Z" fill="white"/>
<path d="M5.53092 19.6099C5.57692 19.7249 5.65692 19.8229 5.75992 19.8919C5.86292 19.9609 5.98388 19.9969 6.10788 19.9949H11.8879C12.1029 19.9939 12.3089 19.9089 12.4609 19.7589C12.6139 19.6079 12.7019 19.4029 12.7059 19.1889C12.7059 19.1649 12.7059 19.1419 12.7059 19.1169C12.7029 17.8439 12.2019 16.6209 11.3099 15.7119C10.9979 15.3969 10.5739 15.2179 10.1299 15.2149C9.68692 15.2119 9.25988 15.3849 8.94388 15.6959L5.66892 18.9319C5.58092 19.0179 5.51991 19.1289 5.49491 19.2499C5.47091 19.3709 5.48292 19.4959 5.53092 19.6099Z" fill="white"/>
<path d="M14.4711 0.387011C14.4241 0.272011 14.3441 0.174029 14.2411 0.105029C14.1381 0.036029 14.0171 3.21701e-05 13.8931 0.00203217H8.11804C7.90304 0.00303217 7.69707 0.0880246 7.54407 0.238025C7.39107 0.389025 7.30307 0.594032 7.29907 0.808032V0.880023C7.30107 2.15202 7.80108 3.37303 8.69208 4.28203C9.00308 4.59703 9.42703 4.77601 9.87103 4.77901C10.314 4.78201 10.7411 4.61002 11.0571 4.29802L14.329 1.067C14.418 0.981004 14.4801 0.870011 14.5051 0.749011C14.5301 0.627011 14.5181 0.501011 14.4711 0.387011Z" fill="white"/>
<path d="M13.6279 19.9485C13.7419 19.9975 13.8679 20.0105 13.9899 19.9865C14.1119 19.9625 14.223 19.9025 14.31 19.8135L18.3969 15.7275C18.5479 15.5745 18.634 15.3685 18.635 15.1545C18.637 14.9395 18.554 14.7325 18.405 14.5775C18.389 14.5615 18.3729 14.5445 18.3549 14.5275C17.4529 13.6285 16.234 13.1195 14.96 13.1075C14.517 13.1045 14.091 13.2775 13.775 13.5895C13.459 13.9005 13.28 14.3245 13.276 14.7685L13.245 19.3695C13.243 19.4935 13.2789 19.6145 13.3469 19.7185C13.4159 19.8215 13.5139 19.9015 13.6279 19.9485Z" fill="white"/>
<path d="M6.37198 0.0477527C6.25798 -0.00124732 6.13198 -0.0142417 6.00998 0.00975829C5.88898 0.0337583 5.77695 0.0937624 5.69095 0.182762L1.60697 4.26974C1.45497 4.42174 1.36996 4.62776 1.36796 4.84176C1.36596 5.05676 1.449 5.26375 1.598 5.41876L1.64798 5.46874C2.54998 6.36674 3.76799 6.87676 5.04099 6.88976C5.48399 6.89176 5.91099 6.71876 6.22599 6.40676C6.54199 6.09576 6.72097 5.67175 6.72397 5.22775L6.75498 0.626763C6.75698 0.502763 6.72199 0.381764 6.65299 0.277764C6.58499 0.174764 6.48698 0.0947527 6.37198 0.0477527Z" fill="white"/>
<path d="M0.0510182 13.6262C0.00101818 13.7412 -0.0120209 13.8672 0.0109791 13.9902C0.0349791 14.1122 0.0959903 14.2242 0.18499 14.3122L4.27197 18.3982C4.42397 18.5502 4.62996 18.6352 4.84496 18.6372C5.05896 18.6392 5.26601 18.5562 5.42101 18.4072L5.47198 18.3572C6.37098 17.4542 6.88102 16.2352 6.89202 14.9612C6.89402 14.5182 6.72099 14.0922 6.40899 13.7762C6.09799 13.4602 5.67397 13.2812 5.22997 13.2782L0.630974 13.2432C0.506974 13.2412 0.384975 13.2772 0.281975 13.3452C0.177975 13.4132 0.0980182 13.5112 0.0510182 13.6262Z" fill="white"/>
<path d="M19.9499 6.37018C19.9989 6.25618 20.0119 6.13018 19.9879 6.00818C19.9639 5.88718 19.9039 5.77518 19.8149 5.68818L15.7289 1.60618C15.5769 1.45518 15.3709 1.3692 15.1569 1.3682C14.9419 1.3662 14.7349 1.44918 14.5799 1.59818C14.5629 1.61418 14.5459 1.6302 14.5289 1.6482C13.6309 2.5492 13.1219 3.76619 13.1089 5.03919C13.1059 5.48219 13.2799 5.90819 13.5909 6.22419C13.9029 6.53919 14.3269 6.71917 14.7699 6.72217L19.3709 6.75318C19.4949 6.75518 19.6159 6.71919 19.7199 6.65119C19.8229 6.58319 19.9029 6.48518 19.9499 6.37018Z" fill="white"/>
</g>
</g>
</g>
</g>
<defs>
<clipPath id="clip0_328_8453">
<rect width="20" height="20" fill="white"/>
</clipPath>
<clipPath id="clip1_328_8453">
<rect width="1333" height="320" fill="white" transform="translate(-579 -298)"/>
</clipPath>
</defs>
</svg>
