<svg width="24" height="16" viewBox="0 0 24 16" fill="none" xmlns="http://www.w3.org/2000/svg">
<g opacity="0.5">
<g clip-path="url(#clip0_328_3701)">
<g clip-path="url(#clip1_328_3701)">
<mask id="mask0_328_3701" style="mask-type:luminance" maskUnits="userSpaceOnUse" x="-279" y="-300" width="1333" height="320">
<path d="M1054 -300H-279V20H1054V-300Z" fill="white"/>
</mask>
<g mask="url(#mask0_328_3701)">
<path opacity="0.5" fill-rule="evenodd" clip-rule="evenodd" d="M16 15.9999C14.595 15.9999 13.215 15.6279 12 14.9209C13.216 14.2199 14.226 13.2119 14.928 11.9969C15.63 10.7819 16 9.40286 16 7.99986C16 6.59686 15.63 5.21785 14.928 4.00285C14.226 2.78785 13.216 1.77987 12 1.07887C13.063 0.462871 14.253 0.0998667 15.478 0.0178667C16.704 -0.0641333 17.932 0.136849 19.067 0.605849C20.202 1.07485 21.214 1.79885 22.024 2.72185C22.835 3.64485 23.422 4.74185 23.74 5.92885C24.058 7.11485 24.098 8.35885 23.858 9.56285C23.618 10.7678 23.104 11.9009 22.356 12.8749C21.607 13.8489 20.645 14.6368 19.543 15.1788C18.44 15.7208 17.228 16.0019 16 15.9999Z" fill="white"/>
<path fill-rule="evenodd" clip-rule="evenodd" d="M8.00003 8.00001C8.00003 9.40301 8.37002 10.782 9.07202 11.997C9.77502 13.212 10.784 14.22 12 14.921C10.784 15.626 9.40402 15.998 7.99802 16C6.59302 16.002 5.21202 15.633 3.99402 14.932C2.77602 14.23 1.76404 13.22 1.06104 12.003C0.358035 10.786 -0.0119629 9.40601 -0.0119629 8.00001C-0.0119629 6.59401 0.358035 5.21402 1.06104 3.99702C1.76404 2.78002 2.77602 1.77 3.99402 1.068C5.21202 0.367001 6.59302 -0.00199191 7.99802 8.08717e-06C9.40402 0.00200809 10.784 0.374018 12 1.07902C10.784 1.78002 9.77502 2.788 9.07202 4.003C8.37002 5.218 8.00003 6.59701 8.00003 8.00001Z" fill="white"/>
<path opacity="0.75" fill-rule="evenodd" clip-rule="evenodd" d="M12 14.9211C10.784 14.2201 9.77399 13.2121 9.07199 11.9971C8.36999 10.7821 8 9.40309 8 8.00009C8 6.59709 8.36999 5.21808 9.07199 4.00308C9.77399 2.78808 10.784 1.7801 12 1.0791C13.216 1.7801 14.226 2.78808 14.928 4.00308C15.63 5.21808 16 6.59709 16 8.00009C16 9.40309 15.63 10.7821 14.928 11.9971C14.226 13.2121 13.216 14.2201 12 14.9211Z" fill="white"/>
</g>
</g>
</g>
</g>
<defs>
<clipPath id="clip0_328_3701">
<rect width="24" height="16" fill="white"/>
</clipPath>
<clipPath id="clip1_328_3701">
<rect width="1333" height="320" fill="white" transform="translate(-279 -300)"/>
</clipPath>
</defs>
</svg>
