<svg width="32" height="10" viewBox="0 0 32 10" fill="none" xmlns="http://www.w3.org/2000/svg">
<g opacity="0.5">
<g clip-path="url(#clip0_328_4097)">
<g clip-path="url(#clip1_328_4097)">
<mask id="mask0_328_4097" style="mask-type:luminance" maskUnits="userSpaceOnUse" x="-40" y="-304" width="1333" height="320">
<path d="M1293 -304H-40V16H1293V-304Z" fill="white"/>
</mask>
<g mask="url(#mask0_328_4097)">
<path fill-rule="evenodd" clip-rule="evenodd" d="M28.801 8.24792C28.878 8.59992 29.108 9.99994 29.108 9.99994L29.11 10.0039H31.51L29.41 0.00393538H27.41C27.1236 -0.0300646 26.8341 0.0349493 26.5894 0.186949C26.3447 0.339949 26.1594 0.571932 26.064 0.843932L22.225 9.99994H24.932C24.932 9.99994 25.391 8.52292 25.483 8.24792H28.801ZM27.593 2.70492L27.777 3.55893C27.777 3.55893 28.266 5.95495 28.373 6.45795H26.232C26.431 5.87795 27.257 3.66592 27.257 3.66592C27.25 3.67292 27.2902 3.56293 27.3479 3.40393C27.4218 3.20093 27.5245 2.91892 27.593 2.70492Z" fill="white"/>
<path d="M20.282 1.92719C20.9451 1.90519 21.6043 2.03618 22.209 2.30918L22.435 2.40919L22.787 0.242196C22.0432 -0.0348043 21.2555 -0.173815 20.462 -0.168815C17.907 -0.168815 16.118 1.1942 16.102 3.1312C16.087 4.5662 17.387 5.35918 18.366 5.83118C19.376 6.31918 19.712 6.64019 19.712 7.08219C19.6244 7.41219 19.4146 7.69719 19.1249 7.87919C18.8352 8.06019 18.4874 8.12418 18.152 8.05918C17.3151 8.07818 16.4861 7.89419 15.735 7.52519L15.383 7.35719L15.032 9.6002C15.9488 9.9552 16.9238 10.1362 17.907 10.1332C20.633 10.1332 22.392 8.79219 22.407 6.73319C22.422 5.58919 21.734 4.71719 20.25 4.01719C19.333 3.55919 18.782 3.2552 18.782 2.7812C18.798 2.3542 19.257 1.92719 20.282 1.92719Z" fill="white"/>
<path d="M12.451 0L10.829 10H13.415L15.036 0H12.451Z" fill="white"/>
<path d="M2.59697 2.47226L4.60397 10.0003H7.34196L11.411 0.000274658H8.67297L6.13897 6.80927L5.86296 5.43628L5.82096 5.22028C5.81606 5.21228 5.81127 5.20429 5.80637 5.19629L4.95097 0.813263C4.90177 0.580263 4.77417 0.371283 4.58937 0.221283C4.40467 0.071283 4.17407 -0.0107187 3.93597 -0.0117188H-0.0350342V0.298279C0.777666 0.538279 1.55786 0.877281 2.28796 1.30728C2.39156 1.69728 2.49637 2.08126 2.59697 2.47226Z" fill="white"/>
</g>
</g>
</g>
</g>
<defs>
<clipPath id="clip0_328_4097">
<rect width="32" height="10" fill="white"/>
</clipPath>
<clipPath id="clip1_328_4097">
<rect width="1333" height="320" fill="white" transform="translate(-40 -304)"/>
</clipPath>
</defs>
</svg>
