<svg width="17" height="18" viewBox="0 0 17 18" fill="none" xmlns="http://www.w3.org/2000/svg">
<g opacity="0.5">
<g clip-path="url(#clip0_328_4493)">
<g clip-path="url(#clip1_328_4493)">
<mask id="mask0_328_4493" style="mask-type:luminance" maskUnits="userSpaceOnUse" x="-127" y="-299" width="1333" height="320">
<path d="M1206 -299H-127V21H1206V-299Z" fill="white"/>
</mask>
<g mask="url(#mask0_328_4493)">
<path fill-rule="evenodd" clip-rule="evenodd" d="M8.97298 -0.00683355C10.334 -0.00783355 11.677 0.305168 12.898 0.907168C13.084 0.996168 13.27 1.09414 13.456 1.20114L12.632 1.94416L11.393 0.656161L9.29997 2.53015L8.05797 1.16815L4.15797 4.69617L6.65797 7.46317L5.67596 8.33014L8.13597 11.1012L7.15997 11.9662L10.675 15.8991L12.762 13.9681L14.562 16.0362C14.189 16.3282 13.795 16.5912 13.382 16.8242C12.04 17.5952 10.52 18.0002 8.97298 18.0002C6.58498 18.0002 4.29496 17.0512 2.60696 15.3632C0.917964 13.6742 -0.0300293 11.3842 -0.0300293 8.99616C-0.0300293 6.60916 0.917964 4.31916 2.60696 2.63016C4.29496 0.94216 6.58498 -0.00683355 8.97298 -0.00683355ZM7.33997 8.42816L9.46997 6.50015L11.389 8.64115L9.25897 10.5681L7.33997 8.42816ZM8.85497 12.1281L10.985 10.1992L12.904 12.3402L10.773 14.2692L8.85497 12.1281ZM5.81596 4.77216L7.94597 2.84415L9.86397 4.98514L7.73396 6.91214L5.81596 4.77216ZM9.72498 3.73416L11.325 2.28916L12.763 3.89417L11.163 5.34116L9.72397 3.73416H9.72498ZM12.564 10.3561L14.164 8.91016L15.602 10.5161L14.002 11.9612L12.564 10.3561ZM13.964 13.5992L15.564 12.1532L17.003 13.7592L15.403 15.2042L13.964 13.5992ZM14.608 6.16715L15.673 5.20316L16.632 6.27317L15.567 7.23615L14.608 6.16715ZM13.247 2.98514L14.312 2.02216L15.271 3.09217L14.206 4.05615L13.247 2.98514ZM15.969 9.34616L17.035 8.38214L18 9.45316L16.935 10.4171L15.976 9.34616H15.969ZM11.193 6.96317L12.793 5.51715L14.232 7.12216L12.632 8.56916L11.193 6.96317Z" fill="white"/>
</g>
</g>
</g>
</g>
<defs>
<clipPath id="clip0_328_4493">
<rect width="17" height="18" fill="white"/>
</clipPath>
<clipPath id="clip1_328_4493">
<rect width="1333" height="320" fill="white" transform="translate(-127 -299)"/>
</clipPath>
</defs>
</svg>
