<svg width="19" height="20" viewBox="0 0 19 20" fill="none" xmlns="http://www.w3.org/2000/svg">
<g opacity="0.5">
<g clip-path="url(#clip0_328_4889)">
<g clip-path="url(#clip1_328_4889)">
<mask id="mask0_328_4889" style="mask-type:luminance" maskUnits="userSpaceOnUse" x="-165" y="-298" width="1333" height="320">
<path d="M1168 -298H-165V22H1168V-298Z" fill="white"/>
</mask>
<g mask="url(#mask0_328_4889)">
<path fill-rule="evenodd" clip-rule="evenodd" d="M16.593 15.3829C16.451 14.6519 16.072 13.9889 15.513 13.4969C15.319 13.3089 15.099 13.1509 14.86 13.0259C14.738 12.9549 14.61 12.8949 14.478 12.8459C14.137 12.6999 13.766 12.6389 13.397 12.6679C13.685 12.5639 13.992 12.5249 14.297 12.5539C14.557 12.5909 14.812 12.6509 15.061 12.7339C15.261 12.8449 15.468 12.9569 15.669 13.0709C16.115 11.4929 16.028 9.8119 15.422 8.2879C14.933 6.9939 14.138 5.83892 13.104 4.91992C12.055 3.93892 10.753 3.26992 9.34497 2.98892C8.52597 2.82992 7.68397 2.8379 6.86797 3.0119C6.17697 3.1929 5.52797 3.50491 4.95497 3.93091C4.42397 4.35691 3.97497 4.87392 3.62697 5.45892C3.52397 5.60092 3.43396 5.7509 3.35696 5.9079C3.28796 6.0779 3.20997 6.24092 3.13197 6.40192C2.70197 7.56392 2.56496 8.81292 2.73196 10.0399C2.83096 10.8059 3.03497 11.5539 3.33997 12.2629C3.50397 12.5779 3.65297 12.9079 3.83397 13.2049C4.01397 13.4929 4.20897 13.7709 4.41997 14.0369C4.86897 14.5369 5.37496 14.9819 5.92796 15.3619C7.19496 16.2199 8.67597 16.7099 10.205 16.7759C10.206 16.6679 10.183 16.5599 10.137 16.4619C10.11 16.3539 10.1 16.2299 10.069 16.1249C10.04 15.8709 10.04 15.6159 10.069 15.3619C10.122 15.4009 10.162 15.4559 10.182 15.5189C10.208 15.5719 10.247 15.6189 10.295 15.6529C10.354 15.7629 10.421 15.8679 10.495 15.9679C10.644 16.1619 10.819 16.3349 11.013 16.4839C11.4 16.8009 11.832 17.0589 12.296 17.2469C12.819 17.4669 13.374 17.6019 13.94 17.6469C14.54 17.7279 15.121 17.8299 15.672 17.9609C16.174 18.1059 16.658 18.3089 17.113 18.5669C17.331 18.6869 17.542 18.8209 17.743 18.9669C17.849 19.0309 17.947 19.1059 18.036 19.1919C18.154 19.2389 18.206 19.3509 18.328 19.3919C18.685 19.7179 19.017 20.0709 19.32 20.4479C19.464 20.6549 19.592 20.8729 19.702 21.0999C19.784 21.1899 19.808 21.3379 19.882 21.4369C19.913 21.4949 19.931 21.5599 19.934 21.6259C19.938 21.6919 19.928 21.7569 19.904 21.8189C19.737 21.8419 19.771 21.6669 19.704 21.5939C19.641 21.5109 19.588 21.4199 19.546 21.3249C19.282 21.0479 19.046 20.7449 18.758 20.4939C18.48 20.2329 18.179 19.9989 17.858 19.7939C17.189 19.3269 16.442 18.9849 15.652 18.7829C14.722 18.5279 13.755 18.4369 12.794 18.5129C12.342 18.5629 11.896 18.6609 11.465 18.8049C11.012 18.9049 10.553 18.9799 10.092 19.0299C8.28296 19.1229 6.47697 18.7839 4.82497 18.0419C4.10997 17.7249 3.44296 17.3099 2.84396 16.8069C2.54296 16.5709 2.26396 16.3079 2.01196 16.0209C1.75396 15.7399 1.52697 15.4309 1.33597 15.0999C1.11797 14.7689 0.922977 14.4239 0.750977 14.0669C0.588977 13.6799 0.453963 13.2819 0.345963 12.8769C0.203963 12.4399 0.113974 11.9879 0.0759738 11.5299C0.0679738 11.3949 0.00696533 11.1349 0.00796533 10.9239C0.0179653 10.9019 0.0259756 10.8789 0.0309756 10.8559C-0.00202441 10.6399 -0.00202441 10.4209 0.0309756 10.2049C0.0339756 9.72889 0.0869733 9.25492 0.187973 8.78992C0.267973 8.36192 0.380971 7.94192 0.525971 7.53192C0.659971 7.13192 0.836971 6.76591 0.997971 6.38791C1.10697 6.22591 1.18897 6.03892 1.29097 5.87192C1.37697 5.69492 1.50597 5.56192 1.58397 5.37192C1.64897 5.30092 1.70898 5.22692 1.76398 5.14792C1.79898 5.04792 1.89197 5.00591 1.92097 4.90091C1.99497 4.83791 2.05597 4.7619 2.10097 4.6759C2.17597 4.6149 2.23698 4.5379 2.28098 4.4519C2.54998 4.1879 2.78997 3.89592 3.06897 3.64392C3.34797 3.39192 3.65997 3.15492 3.94797 2.90292C4.12997 2.81592 4.26197 2.67792 4.44197 2.58792C4.57897 2.46292 4.77896 2.39989 4.91496 2.27389C5.27196 2.08189 5.63897 1.9099 6.01497 1.7569C6.39497 1.5869 6.78597 1.4449 7.18597 1.3309C8.10197 1.0789 9.04996 0.964896 9.99896 0.993896C10.038 0.993896 10.057 0.954896 10.066 0.993896C11.777 1.0199 13.444 1.5409 14.866 2.4939C16.121 3.3289 17.131 4.4839 17.792 5.8399C18.569 7.4669 18.829 9.2929 18.535 11.0719C18.342 12.2879 17.897 13.4509 17.229 14.4849C17.14 14.6519 17.034 14.8109 16.914 14.9569C16.873 15.0389 16.82 15.1139 16.757 15.1809C16.73 15.2209 16.699 15.2579 16.667 15.2939C16.664 15.3049 16.658 15.3139 16.65 15.3219C16.642 15.3299 16.633 15.3359 16.622 15.3389C16.622 15.3999 16.6 15.4079 16.593 15.3829ZM16.054 15.9679C15.832 15.8049 15.679 15.5639 15.625 15.2939C15.595 15.1909 15.595 15.0829 15.625 14.9799C15.639 14.9699 15.654 14.9619 15.67 14.9569C15.708 14.9469 15.749 14.9449 15.788 14.9529C15.827 14.9609 15.863 14.9779 15.895 15.0019C16.027 15.1659 16.119 15.3579 16.166 15.5629C16.189 15.6339 16.191 15.7099 16.171 15.7819C16.151 15.8539 16.11 15.9189 16.054 15.9679ZM14.073 15.5859C14.073 15.5609 14.095 15.5729 14.095 15.5859C14.274 15.6039 14.438 15.6929 14.551 15.8309C14.665 15.9699 14.72 16.1479 14.703 16.3269C14.694 16.4299 14.652 16.5269 14.583 16.6039C14.514 16.6809 14.421 16.7329 14.32 16.7529C14.201 16.7579 14.083 16.7319 13.977 16.6769C13.871 16.6229 13.781 16.5429 13.716 16.4429C13.65 16.3439 13.611 16.2299 13.602 16.1109C13.594 15.9919 13.616 15.8739 13.667 15.7659C13.714 15.7039 13.776 15.6549 13.847 15.6239C13.918 15.5919 13.996 15.5789 14.073 15.5859Z" fill="white"/>
</g>
</g>
</g>
</g>
<defs>
<clipPath id="clip0_328_4889">
<rect width="19" height="20" fill="white"/>
</clipPath>
<clipPath id="clip1_328_4889">
<rect width="1333" height="320" fill="white" transform="translate(-165 -298)"/>
</clipPath>
</defs>
</svg>
