<svg width="14" height="20" viewBox="0 0 14 20" fill="none" xmlns="http://www.w3.org/2000/svg">
<g opacity="0.5">
<g clip-path="url(#clip0_328_5681)">
<g clip-path="url(#clip1_328_5681)">
<mask id="mask0_328_5681" style="mask-type:luminance" maskUnits="userSpaceOnUse" x="-323" y="-298" width="1333" height="321">
<path d="M1010 -297.5H-323V22.5H1010V-297.5Z" fill="white"/>
</mask>
<g mask="url(#mask0_328_5681)">
<path fill-rule="evenodd" clip-rule="evenodd" d="M12.839 14.7682L10.819 15.5023C10.754 15.5253 10.683 15.5212 10.621 15.4922C10.559 15.4642 10.511 15.4122 10.486 15.3482L9.43903 12.5162H4.53903L3.49503 15.3423C3.47003 15.4063 3.42202 15.4582 3.36002 15.4862C3.29802 15.5152 3.22802 15.5193 3.16302 15.4973L1.14603 14.7632C1.11403 14.7532 1.08502 14.7372 1.05902 14.7152C1.03402 14.6942 1.01302 14.6672 0.998016 14.6382C0.983016 14.6082 0.974015 14.5752 0.972015 14.5422C0.970015 14.5092 0.974016 14.4752 0.985016 14.4442L5.06302 3.74423C5.22702 3.37123 5.49604 3.05424 5.83804 2.83124C6.17904 2.60924 6.57802 2.49023 6.98502 2.49023C7.39202 2.49023 7.79102 2.60924 8.13202 2.83124C8.47402 3.05424 8.74304 3.37123 8.90704 3.74423L13 14.4503C13.011 14.4813 13.015 14.5152 13.013 14.5482C13.011 14.5812 13.002 14.6132 12.987 14.6432C12.972 14.6732 12.951 14.6993 12.926 14.7213C12.9 14.7423 12.871 14.7582 12.839 14.7682ZM7.30902 6.44424L6.98804 5.54425V5.53723L5.14304 10.5002H8.83502L7.30902 6.44424ZM0.984039 17.5002H13.016C13.272 17.5082 13.514 17.6153 13.692 17.7993C13.87 17.9833 13.97 18.2293 13.97 18.4843C13.97 18.7403 13.87 18.9863 13.692 19.1703C13.514 19.3543 13.272 19.4612 13.016 19.4692H0.984039C0.728039 19.4612 0.486044 19.3543 0.308044 19.1703C0.130044 18.9863 0.0300293 18.7403 0.0300293 18.4843C0.0300293 18.2293 0.130044 17.9833 0.308044 17.7993C0.486044 17.6153 0.728039 17.5082 0.984039 17.5002Z" fill="white"/>
</g>
</g>
</g>
</g>
<defs>
<clipPath id="clip0_328_5681">
<rect width="14" height="19" fill="white" transform="translate(0 0.5)"/>
</clipPath>
<clipPath id="clip1_328_5681">
<rect width="1333" height="320" fill="white" transform="translate(-323 -297.5)"/>
</clipPath>
</defs>
</svg>
