<svg width="22" height="20" viewBox="0 0 22 20" fill="none" xmlns="http://www.w3.org/2000/svg">
<g opacity="0.5">
<g clip-path="url(#clip0_328_6473)">
<g clip-path="url(#clip1_328_6473)">
<mask id="mask0_328_6473" style="mask-type:luminance" maskUnits="userSpaceOnUse" x="-412" y="-298" width="1333" height="321">
<path d="M921 -297.5H-412V22.5H921V-297.5Z" fill="white"/>
</mask>
<g mask="url(#mask0_328_6473)">
<path d="M4.38999 7.45999V11.291C4.38099 11.472 4.33497 11.648 4.25297 11.809C4.17097 11.971 4.05596 12.112 3.91596 12.226C3.77596 12.339 3.61297 12.422 3.43897 12.468C3.26497 12.514 3.08198 12.522 2.90498 12.493H2.69099C1.73299 12.436 0.805986 12.132 0.000986443 11.61V4.68399C-0.0170136 3.85799 0.292979 3.05901 0.861979 2.46201C1.43198 1.86501 2.21498 1.519 3.03898 1.5H7.01298V7.45999H4.38999Z" fill="white"/>
<path d="M2.65897 13.4936H3.52496C5.40896 13.4936 6.82897 12.5346 7.01297 11.3066V16.3126C7.03197 17.1386 6.72198 17.9386 6.15198 18.5366C5.58298 19.1346 4.79897 19.4806 3.97397 19.4996H0.000976562V12.9926C0.860977 13.2776 1.75497 13.4456 2.65897 13.4936Z" fill="white"/>
<path d="M11.96 19.5H8.00303V12.97C9.02403 13.43 10.132 13.663 11.251 13.651C12.175 13.654 13.094 13.5 13.967 13.195V11.814C13.176 12.263 12.285 12.504 11.376 12.515C10.875 12.466 10.41 12.232 10.072 11.858C9.73403 11.485 9.54603 10.998 9.54603 10.494C9.54603 9.98999 9.73403 9.50301 10.072 9.13C10.41 8.756 10.875 8.52199 11.376 8.47299C12.285 8.48599 13.176 8.72999 13.967 9.17999V7.81601C13.094 7.51001 12.175 7.35601 11.251 7.35901C10.132 7.34801 9.02403 7.58001 8.00303 8.04001V4.68399C7.98403 3.85999 8.29105 3.06199 8.85905 2.46399C9.42605 1.86699 10.207 1.52 11.03 1.5H14.987V16.316C15.006 17.14 14.6981 17.938 14.1311 18.536C13.5631 19.133 12.782 19.48 11.96 19.5Z" fill="white"/>
<path d="M19.4779 12.3072C19.6169 12.1812 19.7009 12.0052 19.7099 11.8182C19.7009 11.6312 19.6179 11.4552 19.4789 11.3292C19.3409 11.2032 19.1589 11.1372 18.9719 11.1452H16.9929V12.4902H18.9689C19.1559 12.4992 19.3389 12.4332 19.4779 12.3072Z" fill="white"/>
<path d="M18.7239 8.4739H16.9929V9.82092H18.7239C18.8179 9.82992 18.9129 9.81989 19.0029 9.79089C19.0929 9.76089 19.1759 9.7129 19.2459 9.6499C19.3159 9.5859 19.3719 9.5089 19.4099 9.4219C19.4489 9.3359 19.4679 9.24191 19.4679 9.14791C19.4679 9.05291 19.4489 8.95889 19.4099 8.87289C19.3719 8.78589 19.3159 8.70889 19.2459 8.64489C19.1759 8.58189 19.0929 8.5339 19.0029 8.5039C18.9129 8.4749 18.8179 8.4649 18.7239 8.4739Z" fill="white"/>
<path d="M15.994 19.5H19.391C20.154 19.416 20.853 19.035 21.339 18.44C21.824 17.844 22.0571 17.082 21.9881 16.316V1.5H18.593C17.83 1.584 17.131 1.965 16.645 2.561C16.159 3.156 15.9261 3.91899 15.9951 4.68399V7.495H19.365C19.573 7.47699 19.7821 7.502 19.9801 7.569C20.1781 7.636 20.3601 7.743 20.5141 7.884C20.6681 8.026 20.7911 8.19701 20.8761 8.38901C20.9601 8.58101 21.003 8.78801 21.003 8.99701C21.003 9.20601 20.9601 9.41301 20.8761 9.60501C20.7911 9.79601 20.6681 9.96801 20.5141 10.109C20.3601 10.251 20.1781 10.358 19.9801 10.425C19.8681 10.463 19.7511 10.488 19.6331 10.498H19.365C19.454 10.507 19.5441 10.506 19.6331 10.498H19.9181C20.1301 10.473 20.3451 10.492 20.5491 10.556C20.7531 10.62 20.9411 10.726 21.1011 10.868C21.2611 11.01 21.3891 11.184 21.4761 11.379C21.5641 11.574 21.6091 11.786 21.6091 12C21.6091 12.214 21.5641 12.426 21.4761 12.621C21.3891 12.816 21.2611 12.99 21.1011 13.132C20.9411 13.274 20.7531 13.38 20.5491 13.444C20.3451 13.508 20.1301 13.527 19.9181 13.502H15.994V19.5Z" fill="white"/>
</g>
</g>
</g>
</g>
<defs>
<clipPath id="clip0_328_6473">
<rect width="22" height="19" fill="white" transform="translate(0 0.5)"/>
</clipPath>
<clipPath id="clip1_328_6473">
<rect width="1333" height="320" fill="white" transform="translate(-412 -297.5)"/>
</clipPath>
</defs>
</svg>
