<svg width="10" height="10" viewBox="0 0 10 10" fill="none" xmlns="http://www.w3.org/2000/svg">
<path d="M0 4.0446C0 6.27468 1.79809 8.08918 4.00803 8.08918C4.88196 8.08918 5.68054 7.80538 6.3385 7.32894L8.80962 9.82764C8.92514 9.94426 9.07583 10 9.23655 10C9.57806 10 9.81413 9.74148 9.81413 9.4019C9.81413 9.23971 9.75385 9.09273 9.64842 8.98633L7.19236 6.49266C7.70966 5.81349 8.01604 4.96705 8.01604 4.0446C8.01604 1.81449 6.21795 0 4.00803 0C1.79809 0 0 1.81449 0 4.0446ZM0.858862 4.0446C0.858862 2.29092 2.27021 0.866699 4.00803 0.866699C5.74586 0.866699 7.15718 2.29092 7.15718 4.0446C7.15718 5.79828 5.74586 7.22249 4.00803 7.22249C2.27021 7.22249 0.858862 5.79828 0.858862 4.0446Z" fill="#171717"/>
</svg>
