<svg width="40" height="40" viewBox="0 0 40 40" fill="none" xmlns="http://www.w3.org/2000/svg">
<g clip-path="url(#clip0_473_62)">
<path d="M25.3984 12.2793V15.0137H27.9961C28.9531 15.0137 29.5977 15.2383 30.1738 15.8828L33.4941 19.6328C34.0312 20.2383 34.1875 20.6875 34.1875 21.6445V25.0918C34.1875 26.8301 33.2695 27.7383 31.5312 27.7383H30.3399C30.0552 29.2901 28.7036 30.4629 27.0684 30.4629C25.4331 30.4629 24.0739 29.2901 23.7875 27.7383H16.2673C15.981 29.2901 14.6227 30.4629 12.9961 30.4629C11.3609 30.4629 9.99393 29.2901 9.70578 27.7383H8.40625C6.6582 27.7383 5.75 26.8301 5.75 25.0918V18.0399C6.24221 18.2651 6.76963 18.4242 7.32227 18.5035V25.0625C7.32227 25.7949 7.69336 26.166 8.42578 26.166H9.78913C10.2028 24.7946 11.4849 23.793 12.9961 23.793C14.4993 23.793 15.7734 24.7946 16.1844 26.166H23.8262V12.3086C23.8262 11.5762 23.4355 11.1953 22.7129 11.1953H14.4949C14.4024 10.641 14.2309 10.113 13.9905 9.62305H22.7422C24.4805 9.62305 25.3984 10.541 25.3984 12.2793ZM10.9746 27.123C10.9746 28.2363 11.8828 29.1348 12.9961 29.1348C14.0996 29.1348 14.998 28.2363 14.998 27.123C14.998 26.0195 14.0996 25.1113 12.9961 25.1113C11.8828 25.1113 10.9746 26.0195 10.9746 27.123ZM25.0566 27.123C25.0566 28.2363 25.9648 29.1348 27.0684 29.1348C28.1816 29.1348 29.0703 28.2363 29.0703 27.123C29.0703 26.0195 28.1621 25.1113 27.0684 25.1113C25.9648 25.1113 25.0566 26.0195 25.0566 27.123ZM25.3984 16.5859V24.2425C25.8882 23.9558 26.4591 23.793 27.0684 23.793C28.5796 23.793 29.8486 24.7946 30.2575 26.166H31.502C32.2344 26.166 32.6152 25.7949 32.6152 25.0625V21.6152C32.6152 21.2637 32.4785 20.8535 32.2148 20.5605L29.1484 17.1133C28.748 16.6738 28.3965 16.5859 27.8984 16.5859H25.3984ZM28.3379 17.9336L31.248 21.2051C31.3945 21.3711 31.4824 21.498 31.4824 21.7324H27.2246C26.707 21.7324 26.3848 21.4199 26.3848 20.9023V17.5625H27.5957C27.8691 17.5625 28.123 17.709 28.3379 17.9336Z" fill="#171717"/>
<path d="M13.2598 12.2891C13.2598 15.0039 10.9844 17.25 8.29883 17.25C5.58398 17.25 3.33789 15.0234 3.33789 12.2891C3.33789 9.57423 5.58398 7.32812 8.29883 7.32812C11.0234 7.32812 13.2598 9.56446 13.2598 12.2891ZM7.74219 9.40821V11.8496H5.98438C5.65234 11.8496 5.37891 12.1231 5.37891 12.4453C5.37891 12.7773 5.64258 13.0508 5.98438 13.0508H8.34766C8.68945 13.0508 8.95312 12.7871 8.95312 12.4453V9.40821C8.95312 9.07617 8.67969 8.82227 8.34766 8.82227C8.01562 8.82227 7.74219 9.07617 7.74219 9.40821Z" fill="#171717"/>
</g>
<defs>
<clipPath id="clip0_473_62">
<rect width="36.2988" height="27.4512" fill="white" transform="translate(2 6)"/>
</clipPath>
</defs>
</svg>
