<svg width="40" height="40" viewBox="0 0 40 40" fill="none" xmlns="http://www.w3.org/2000/svg">
<g clip-path="url(#clip0_473_88)">
<path d="M25.432 10.1298V10.5495H23.4954V10.4508C23.4954 9.46313 22.9179 8.90756 21.9075 8.90756H13.487C12.4765 8.90756 11.8991 9.46313 11.8991 10.4508V29.5248C11.8991 30.5125 12.4765 31.068 13.487 31.068H16.908C17.028 31.84 17.3358 32.5144 17.7884 33.0557H13.2344C11.2736 33.0557 9.9624 31.7717 9.9624 29.8458V10.1298C9.9624 8.20386 11.2736 6.91992 13.2344 6.91992H22.1601C24.1209 6.91992 25.432 8.20386 25.432 10.1298ZM20.0068 10.6483L20.0058 10.6691C19.3332 10.8155 18.7402 11.1103 18.2568 11.5249L16.2417 11.5248C15.7725 11.5248 15.3876 11.1421 15.3876 10.6483C15.3876 10.1668 15.7725 9.78411 16.2417 9.78411H19.1528C19.6219 9.78411 20.0068 10.1668 20.0068 10.6483Z" fill="black" fill-opacity="0.85"/>
<path d="M21.0653 33.0554H27.7776C29.4738 33.0554 30.5925 31.9565 30.5925 30.2899V14.7591C30.5925 13.0924 29.4738 11.9937 27.7776 11.9937H21.0653C19.3692 11.9937 18.2505 13.0924 18.2505 14.7591V30.2899C18.2505 31.9565 19.3692 33.0554 21.0653 33.0554ZM21.4142 31.1912C20.5481 31.1912 20.0669 30.7097 20.0669 29.8701V15.1788C20.0669 14.3393 20.5481 13.8578 21.4142 13.8578H27.4288C28.2708 13.8578 28.7761 14.3393 28.7761 15.1788V29.8701C28.7761 30.7097 28.2708 31.1912 27.4288 31.1912H21.4142ZM23.1103 16.4011H25.8049C26.2379 16.4011 26.5988 16.043 26.5988 15.5739C26.5988 15.1048 26.2379 14.7344 25.8049 14.7344H23.1103C22.6532 14.7344 22.2923 15.1048 22.2923 15.5739C22.2923 16.043 22.6532 16.4011 23.1103 16.4011Z" fill="black" fill-opacity="0.85"/>
</g>
<defs>
<clipPath id="clip0_473_88">
<rect width="23" height="29" fill="white" transform="translate(9 5.5)"/>
</clipPath>
</defs>
</svg>
