<svg width="40" height="40" viewBox="0 0 40 40" fill="none" xmlns="http://www.w3.org/2000/svg">
<g clip-path="url(#clip0_473_96)">
<path d="M9 26.3803C9 27.2279 9.64033 27.7852 10.7266 27.7852H15.552C15.6434 30.0262 17.37 31.9885 19.7827 31.9885C22.2068 31.9885 23.9334 30.0378 24.0249 27.7852H28.8502C29.9251 27.7852 30.5768 27.2279 30.5768 26.3803C30.5768 25.2192 29.4105 24.1742 28.4272 23.1408C27.6726 22.3396 27.4667 20.6909 27.3753 19.3556C27.2952 14.7809 26.1289 11.8317 23.0872 10.717C22.6985 9.19594 21.475 8 19.7827 8C18.1019 8 16.8669 9.19594 16.4896 10.717C13.448 11.8317 12.2817 14.7809 12.2017 19.3556C12.1102 20.6909 11.9044 22.3396 11.1497 23.1408C10.1549 24.1742 9 25.2192 9 26.3803ZM11.2183 26.032V25.8926C11.4241 25.5559 12.1102 24.8709 12.7048 24.1974C13.5281 23.2685 13.9168 21.7707 14.0197 19.5066C14.1112 14.4325 15.5977 12.8186 17.553 12.2729C17.8389 12.2032 17.9989 12.0639 18.0104 11.762C18.0447 10.5544 18.7308 9.70683 19.7827 9.70683C20.8461 9.70683 21.5208 10.5544 21.5665 11.762C21.578 12.0639 21.7265 12.2032 22.0125 12.2729C23.9792 12.8186 25.4657 14.4325 25.5571 19.5066C25.66 21.7707 26.0488 23.2685 26.8607 24.1974C27.4667 24.8709 28.1414 25.5559 28.3471 25.8926V26.032H11.2183ZM17.3357 27.7852H22.2411C22.1497 29.3644 21.1663 30.3513 19.7827 30.3513C18.4106 30.3513 17.4158 29.3644 17.3357 27.7852Z" fill="black" fill-opacity="0.85"/>
</g>
<defs>
<clipPath id="clip0_473_96">
<rect width="22" height="24" fill="white" transform="translate(9 8)"/>
</clipPath>
</defs>
</svg>
