<svg width="40" height="40" viewBox="0 0 40 40" fill="none" xmlns="http://www.w3.org/2000/svg">
<g clip-path="url(#clip0_328_3268)">
<path d="M26.5193 25.0862L27.3982 25.2229C27.7498 25.2717 28.0623 25.4866 28.2674 25.7893L30.3084 28.8362C30.5037 29.1389 30.533 29.4514 30.3279 29.6663L28.5799 31.4143C28.365 31.6292 28.0623 31.6292 27.7498 31.4241L24.6931 29.3538C24.4002 29.1585 24.1756 28.846 24.1267 28.4944L23.99 27.6155L19.729 23.3544C19.9901 23.0167 20.2764 22.6611 20.5932 22.2851L25.3572 27.0491L25.5525 28.1428L28.0232 30.0081L28.9119 29.1194L27.0467 26.6389L25.9529 26.4534L21.1382 21.6479C21.4212 21.3221 21.7269 20.9817 22.0581 20.625L26.5193 25.0862ZM14.4783 10.1253L20.3045 15.9597C20.3615 16.1236 20.4287 16.2848 20.5037 16.4436C20.222 16.7215 19.9481 16.9867 19.6843 17.2355L13.4529 11.0042C12.74 10.3011 11.9783 10.2913 11.2849 10.9944L9.90799 12.3811C9.20486 13.094 9.1951 13.8362 9.90799 14.5491L15.8555 20.4966C15.4603 20.7902 15.0896 21.05 14.74 21.2837L9.02908 15.5647C7.6619 14.1975 7.6619 12.7327 8.99979 11.3948L10.2986 10.096C11.6365 8.75809 13.1013 8.75809 14.4783 10.1253ZM11.6756 13.4651L15.3279 17.1175C15.4744 17.2639 15.4646 17.4886 15.3279 17.6253C15.1912 17.7718 14.9568 17.7718 14.8103 17.6253L11.158 13.9925C11.0115 13.8557 11.0213 13.6214 11.158 13.4651C11.3045 13.3284 11.5486 13.3479 11.6756 13.4651ZM12.8865 12.2639L16.5388 15.9065C16.6756 16.0432 16.6756 16.2678 16.5291 16.4339C16.4021 16.5608 16.1482 16.5803 16.0115 16.4339L12.3787 12.7718C12.242 12.635 12.2322 12.4104 12.3787 12.2639C12.5056 12.1272 12.74 12.1175 12.8865 12.2639Z" fill="#171717"/>
<path d="M9.52714 30.262C11.2264 31.9417 13.5018 31.9612 15.1717 30.2815C17.2713 28.1624 16.9393 25.7796 23.3455 19.2757C25.4353 20.262 27.9646 19.93 29.6443 18.26C31.4021 16.5022 31.7049 13.7288 30.3963 11.4827L27.74 14.1389C27.4763 14.4026 27.1443 14.4221 26.8611 14.1389L25.6697 12.9377C25.3865 12.6448 25.3572 12.303 25.6209 12.0393L28.2869 9.39282C26.0603 8.09399 23.2967 8.38696 21.5388 10.1545C19.8592 11.8342 19.5174 14.3538 20.5037 16.4436C14.0096 22.8499 11.6268 22.5178 9.50761 24.6077C7.81816 26.2776 7.83769 28.5628 9.52714 30.262ZM22.5935 17.1956C20.8553 15.4573 20.7869 12.7034 22.4471 11.0627C23.3846 10.1155 24.7224 9.73462 26.0017 9.9397L24.5857 11.3557C23.8631 12.0686 23.8826 12.9866 24.6346 13.719L26.0799 15.1545C26.8025 15.8772 27.7303 15.8967 28.4138 15.2034L29.8494 13.7581C30.0642 15.0569 29.6736 16.3948 28.7263 17.3518C27.076 19.0022 24.3416 18.9241 22.5935 17.1956ZM10.4939 29.2952C9.37089 28.1526 9.39042 26.6975 10.4646 25.6135C12.8279 23.2698 14.2342 24.2659 21.158 17.4983C21.3142 17.7131 21.49 17.9084 21.6756 18.1038C21.8611 18.2893 22.0662 18.4749 22.281 18.6311C15.5232 25.555 16.5193 26.9612 14.1756 29.305C13.0916 30.3987 11.6268 30.4085 10.4939 29.2952ZM12.3103 28.7092C12.9744 28.7092 13.5213 28.1624 13.5213 27.4983C13.5213 26.8342 12.9744 26.2971 12.3103 26.2971C11.6463 26.2971 11.1092 26.8342 11.1092 27.4983C11.1092 28.1624 11.6463 28.7092 12.3103 28.7092Z" fill="#171717"/>
</g>
<defs>
<clipPath id="clip0_328_3268">
<rect width="23.5718" height="23.5767" fill="white" transform="translate(8 8)"/>
</clipPath>
</defs>
</svg>
