<svg width="13" height="13" viewBox="0 0 13 13" fill="none" xmlns="http://www.w3.org/2000/svg">
<path d="M10.37 5.09059L8.76785 4.49974C7.47073 4.02141 6.44822 2.999 5.96997 1.70199L5.37902 0.0997476C5.35681 0.0395158 5.29938 -0.000488281 5.23517 -0.000488281C5.17096 -0.000488281 5.11353 0.0395158 5.09132 0.0997476L4.50037 1.7019C4.02203 2.999 2.99952 4.02141 1.70249 4.49974L0.100237 5.09059C0.0400046 5.11281 0 5.17024 0 5.23444C0 5.29865 0.0400046 5.35608 0.100237 5.3783L1.70258 5.96933C2.99961 6.44766 4.02203 7.47006 4.50037 8.76708L5.09132 10.3694C5.11353 10.4296 5.17096 10.4696 5.23517 10.4696C5.29938 10.4696 5.35681 10.4296 5.37902 10.3694L5.96997 8.76708C6.44831 7.47006 7.47073 6.44757 8.76776 5.96933L10.3701 5.3783C10.4303 5.35608 10.4703 5.29865 10.4703 5.23444C10.4703 5.17024 10.4302 5.11281 10.37 5.09059Z" fill="#4E862C"/>
<path d="M12.9534 10.4504L12.1938 10.1702C11.5789 9.94349 11.0942 9.45883 10.8675 8.84405L10.5873 8.08461C10.5768 8.05607 10.5495 8.03711 10.5191 8.03711C10.4886 8.03711 10.4614 8.05607 10.4509 8.08461L10.1707 8.84405C9.94393 9.45892 9.45927 9.94358 8.84449 10.1702L8.08485 10.4504C8.05632 10.4609 8.03735 10.4882 8.03735 10.5186C8.03735 10.5491 8.05632 10.5763 8.08485 10.5868L8.8444 10.867C9.45936 11.0938 9.94402 11.5785 10.1708 12.1934L10.451 12.9529C10.4615 12.9814 10.4887 13.0004 10.5192 13.0004C10.5496 13.0004 10.5769 12.9814 10.5873 12.9529L10.8676 12.1934C11.0943 11.5785 11.579 11.0938 12.1939 10.867L12.9535 10.5868C12.982 10.5763 13.001 10.5491 13.001 10.5186C13.001 10.4882 12.982 10.4609 12.9534 10.4504Z" fill="#4E862C"/>
</svg>
