<svg width="13" height="12" viewBox="0 0 13 12" fill="none" xmlns="http://www.w3.org/2000/svg">
<path d="M7.04183 3.07487C7.04183 2.77571 6.79933 2.5332 6.50016 2.5332C6.201 2.5332 5.9585 2.77571 5.9585 3.07487V5.99986C5.9585 6.14357 6.01559 6.28131 6.11715 6.38288L7.52548 7.79121C7.737 8.00273 8.07999 8.00273 8.29151 7.79121C8.50303 7.57969 8.50303 7.23671 8.29151 7.02519L7.04183 5.77551V3.07487Z" fill="#999999"/>
<path fill-rule="evenodd" clip-rule="evenodd" d="M6.50008 0.0415039C3.20939 0.0415039 0.541748 2.70914 0.541748 5.99984C0.541748 9.29052 3.20939 11.9582 6.50008 11.9582C9.79076 11.9582 12.4584 9.29052 12.4584 5.99984C12.4584 2.70914 9.79076 0.0415039 6.50008 0.0415039ZM1.62508 5.99984C1.62508 3.30745 3.80769 1.12484 6.50008 1.12484C9.19249 1.12484 11.3751 3.30745 11.3751 5.99984C11.3751 8.69225 9.19249 10.8748 6.50008 10.8748C3.80769 10.8748 1.62508 8.69225 1.62508 5.99984Z" fill="#999999"/>
</svg>
